<?xml version="1.0" encoding="UTF-8"?>
<svg version="1.1" xmlns="http://www.w3.org/2000/svg" width="398" height="82">
<path d="M0 0 C131.34 0 262.68 0 398 0 C398 27.06 398 54.12 398 82 C266.66 82 135.32 82 0 82 C0 54.94 0 27.88 0 0 Z " fill="#FBFCFC" transform="translate(0,0)"/>
<path d="M0 0 C2.52135847 0.06021348 5.04285375 0.11496275 7.56445312 0.1640625 C13.73345817 0.29609957 19.89734953 0.49664749 26.0625 0.75 C27.24530474 2.78369998 28.40833227 4.82512682 29.5625 6.875 C30.53703125 8.58042969 30.53703125 8.58042969 31.53125 10.3203125 C33.14422479 13.93304685 33.6946469 15.86229658 33.0625 19.75 C32.41506836 20.52174561 31.76763672 21.29349121 31.10058594 22.08862305 C28.25499127 25.80446246 28.4602767 28.77126929 28.453125 33.33203125 C28.43658875 34.14621017 28.42005249 34.9603891 28.40301514 35.79924011 C28.35462212 38.3870708 28.33318432 40.97431426 28.3125 43.5625 C28.28433292 45.32229503 28.25440445 47.08206281 28.22265625 48.84179688 C28.14886591 53.14448288 28.0992385 57.44684457 28.0625 61.75 C29.3825 62.08 30.7025 62.41 32.0625 62.75 C10.2825 62.75 -11.4975 62.75 -33.9375 62.75 C-33.9375 62.09 -33.9375 61.43 -33.9375 60.75 C-32.6175 60.75 -31.2975 60.75 -29.9375 60.75 C-29.9375 48.54 -29.9375 36.33 -29.9375 23.75 C-31.2575 23.09 -32.5775 22.43 -33.9375 21.75 C-34.73917856 14.87846948 -33.78535175 9.26056833 -30.16772461 3.29003906 C-23.5250154 -3.44418199 -8.54955541 -0.35255899 0 0 Z " fill="#55393D" transform="translate(40.9375,10.25)"/>
<path d="M0 0 C0 0.66 0 1.32 0 2 C4.83229566 2.0947509 9.25758034 2.0374043 14 1 C14.495 1.495 14.495 1.495 15 2 C19.21571713 2.28743526 22.18009548 1.79760213 26 0 C26 0.66 26 1.32 26 2 C28.31 2.33 30.62 2.66 33 3 C33.02465098 7.96622349 33.04283649 12.93241166 33.05493164 17.89868164 C33.0599719 19.58944316 33.06680405 21.28020029 33.07543945 22.97094727 C33.08751857 25.39600707 33.09323123 27.82100944 33.09765625 30.24609375 C33.10281754 31.00651474 33.10797882 31.76693573 33.11329651 32.55039978 C33.11349238 34.3673257 33.06197277 36.18413127 33 38 C32 39 32 39 28.94897461 39.11352539 C27.60008729 39.11336634 26.25119386 39.10767612 24.90234375 39.09765625 C23.83905602 39.09553383 23.83905602 39.09553383 22.75428772 39.09336853 C20.48198288 39.08775443 18.20977525 39.07519963 15.9375 39.0625 C14.40039204 39.05748681 12.86328255 39.05292359 11.32617188 39.04882812 C7.55071333 39.0386297 3.77546596 39.01905732 0 39 C-0.495 26.625 -0.495 26.625 -1 14 C-5.95 13.67 -10.9 13.34 -16 13 C-16 21.58 -16 30.16 -16 39 C-17.65 39 -19.3 39 -21 39 C-22 38 -22 38 -22.11352539 34.67358398 C-22.11336629 33.19774444 -22.10767314 31.72189931 -22.09765625 30.24609375 C-22.09553383 29.08292381 -22.09553383 29.08292381 -22.09336853 27.89625549 C-22.08775345 25.40996506 -22.07519846 22.9237634 -22.0625 20.4375 C-22.05748694 18.75586067 -22.0529237 17.07421994 -22.04882812 15.39257812 C-22.03777913 11.26168434 -22.02050445 7.13085724 -22 3 C-20.5437328 2.63743142 -19.08488815 2.28520207 -17.625 1.9375 C-16.40683594 1.64166016 -16.40683594 1.64166016 -15.1640625 1.33984375 C-13 1 -13 1 -11 2 C-6.48946792 2.2879063 -3.96489201 0 0 0 Z " fill="#BECDDB" transform="translate(35,32)"/>
<path d="M0 0 C3 1 3 1 3.9831543 2.64233398 C4.26070557 3.33657471 4.53825684 4.03081543 4.82421875 4.74609375 C5.13037109 5.50083984 5.43652344 6.25558594 5.75195312 7.03320312 C6.21504883 8.22333008 6.21504883 8.22333008 6.6875 9.4375 C7.00783203 10.22705078 7.32816406 11.01660156 7.65820312 11.83007812 C10 17.6870669 10 17.6870669 10 20 C10.99 20 11.98 20 13 20 C13.66 22.97 14.32 25.94 15 29 C15.99 29 16.98 29 18 29 C18 30.65 18 32.3 18 34 C20.31 34 22.62 34 25 34 C24.67 24.1 24.34 14.2 24 4 C22.68 3.67 21.36 3.34 20 3 C20 2.01 20 1.02 20 0 C23.02138567 -0.08149592 26.04053905 -0.14073421 29.0625 -0.1875 C29.91005859 -0.21263672 30.75761719 -0.23777344 31.63085938 -0.26367188 C37.95743212 -0.33695264 43.12003441 0.30583864 47.9375 4.8125 C49.39361756 7.8103891 49.4712013 9.70159091 49 13 C46.90741149 16.17496188 45.17308714 17.88460857 42 20 C43.19196279 21.78189361 44.40436555 23.55012329 45.625 25.3125 C46.29789062 26.29863281 46.97078125 27.28476562 47.6640625 28.30078125 C50.21346068 31.24665774 52.43688037 32.50430652 56 34 C56 34.99 56 35.98 56 37 C52.33086283 38.07447618 49.64723466 38.22864404 46 37 C41.99794174 33.12779438 39.08376808 28.21498333 36.19165039 23.49047852 C34.97260673 21.68892287 34.97260673 21.68892287 32 21 C32 25.29 32 29.58 32 34 C33.65 34.33 35.3 34.66 37 35 C37 35.66 37 36.32 37 37 C26.44 37 15.88 37 5 37 C5 36.01 5 35.02 5 34 C6.32 34 7.64 34 9 34 C8.01 31.03 7.02 28.06 6 25 C-0.435 25.495 -0.435 25.495 -7 26 C-7.99 28.64 -8.98 31.28 -10 34 C-8.68 34 -7.36 34 -6 34 C-6 34.99 -6 35.98 -6 37 C-9.96 37 -13.92 37 -18 37 C-18 36.01 -18 35.02 -18 34 C-16.515 33.505 -16.515 33.505 -15 33 C-13.5022137 30.41890603 -13.5022137 30.41890603 -12.1875 27.20703125 C-11.41019531 25.42522461 -11.41019531 25.42522461 -10.6171875 23.60742188 C-10.07772173 22.34261985 -9.53866268 21.07764427 -9 19.8125 C-7.94058396 17.35933355 -6.87611867 14.90838124 -5.8125 12.45703125 C-5.34457031 11.36366455 -4.87664062 10.27029785 -4.39453125 9.14379883 C-3.01978093 6.04459366 -1.54019324 3.01990323 0 0 Z " fill="#434956" transform="translate(328,25)"/>
<path d="M0 0 C5.70411972 2.75020058 9.52093546 7.1943275 12 13 C12.98447862 19.73108637 12.03036117 25.47054107 8 31 C3.69458765 35.4152443 0.3843836 37.16753322 -5.75 37.3125 C-11.03099209 37.26196419 -14.00639067 36.69408863 -18 33 C-22.7545417 27.84924649 -24.51249726 23.28601936 -24.3046875 16.3359375 C-23.54905835 10.54278072 -20.82418859 6.3467261 -16.5 2.5 C-11.3527771 -1.02787187 -6.01220379 -0.99074344 0 0 Z " fill="#F8F8F8" transform="translate(258,25)"/>
<path d="M0 0 C1.40185547 0.00966797 1.40185547 0.00966797 2.83203125 0.01953125 C4.28416016 0.04466797 4.28416016 0.04466797 5.765625 0.0703125 C6.74917969 0.07933594 7.73273438 0.08835937 8.74609375 0.09765625 C11.16951907 0.12118465 13.59244722 0.15405882 16.015625 0.1953125 C17.31652331 2.79710913 17.18402578 4.7922313 17.203125 7.6953125 C17.21730469 8.675 17.23148437 9.6546875 17.24609375 10.6640625 C17.015625 13.1953125 17.015625 13.1953125 15.015625 15.1953125 C16.335625 15.5253125 17.655625 15.8553125 19.015625 16.1953125 C19.015625 17.1853125 19.015625 18.1753125 19.015625 19.1953125 C18.025625 19.5253125 17.035625 19.8553125 16.015625 20.1953125 C15.685625 24.8153125 15.355625 29.4353125 15.015625 34.1953125 C14.685625 34.1953125 14.355625 34.1953125 14.015625 34.1953125 C14.015625 29.2453125 14.015625 24.2953125 14.015625 19.1953125 C12.695625 19.1953125 11.375625 19.1953125 10.015625 19.1953125 C10.03882813 20.25492188 10.06203125 21.31453125 10.0859375 22.40625 C10.10469444 23.7942638 10.12289472 25.1822852 10.140625 26.5703125 C10.15738281 27.26898438 10.17414063 27.96765625 10.19140625 28.6875 C10.20906767 30.52428736 10.11865761 32.36133213 10.015625 34.1953125 C9.355625 34.8553125 8.695625 35.5153125 8.015625 36.1953125 C8.015625 36.5253125 8.015625 36.8553125 8.015625 37.1953125 C-5.50529405 38.12281457 -5.50529405 38.12281457 -11.3984375 33.671875 C-15.93478032 29.44838341 -17.62249567 25.48554509 -18.0078125 19.421875 C-17.93644486 12.64194895 -15.17296707 8.7569719 -10.8359375 3.89453125 C-7.40648733 0.74725103 -4.61775213 -0.05631405 0 0 Z " fill="#F7F7F7" transform="translate(289.984375,24.8046875)"/>
<path d="M0 0 C2.4731789 0.06021484 4.94649732 0.11496389 7.41992188 0.1640625 C13.47049706 0.29608691 19.51585622 0.49662212 25.5625 0.75 C25.5625 1.08 25.5625 1.41 25.5625 1.75 C18.9625 1.75 12.3625 1.75 5.5625 1.75 C6.0575 3.73 6.0575 3.73 6.5625 5.75 C6.68455329 8.42540816 6.60717313 11.06961238 6.5625 13.75 C12.0075 14.245 12.0075 14.245 17.5625 14.75 C17.5625 15.08 17.5625 15.41 17.5625 15.75 C14.2625 15.75 10.9625 15.75 7.5625 15.75 C7.5625 17.07 7.5625 18.39 7.5625 19.75 C6.9025 19.75 6.2425 19.75 5.5625 19.75 C5.0675 10.84 5.0675 10.84 4.5625 1.75 C-5.3375 1.75 -15.2375 1.75 -25.4375 1.75 C-26.0975 3.73 -26.7575 5.71 -27.4375 7.75 C-28.3938874 9.44207001 -29.38160931 11.11816893 -30.4375 12.75 C-27.1375 13.08 -23.8375 13.41 -20.4375 13.75 C-20.1075 12.43 -19.7775 11.11 -19.4375 9.75 C-18.50847847 7.38171712 -17.46703585 5.07764627 -16.4375 2.75 C-15.02062881 7.00061356 -16.24429961 9.46851625 -17.4375 13.75 C-18.0975 13.75 -18.7575 13.75 -19.4375 13.75 C-19.251875 14.678125 -19.06625 15.60625 -18.875 16.5625 C-18.4375 19.75 -18.4375 19.75 -19.4375 22.75 C-22.42209129 24.70542188 -23.70164791 24.75 -27.4375 24.75 C-27.1075 36.3 -26.7775 47.85 -26.4375 59.75 C-24.7875 60.08 -23.1375 60.41 -21.4375 60.75 C-21.4375 52.17 -21.4375 43.59 -21.4375 34.75 C-17.7559375 34.7190625 -17.7559375 34.7190625 -14 34.6875 C-13.22599854 34.678396 -12.45199707 34.66929199 -11.65454102 34.65991211 C-9.91528283 34.65275087 -8.17604696 34.69975298 -6.4375 34.75 C-5.4375 35.75 -5.4375 35.75 -5.32397461 38.15844727 C-5.32921143 39.20057373 -5.33444824 40.2427002 -5.33984375 41.31640625 C-5.34234131 42.32904541 -5.34483887 43.34168457 -5.34741211 44.38500977 C-5.35651611 45.68108154 -5.36562012 46.97715332 -5.375 48.3125 C-5.395625 52.416875 -5.41625 56.52125 -5.4375 60.75 C5.1225 60.42 15.6825 60.09 26.5625 59.75 C26.8925 48.2 27.2225 36.65 27.5625 24.75 C25.2525 24.42 22.9425 24.09 20.5625 23.75 C20.5625 23.09 20.5625 22.43 20.5625 21.75 C19.2425 22.08 17.9225 22.41 16.5625 22.75 C17.2225 20.77 17.8825 18.79 18.5625 16.75 C19.243125 17.595625 19.92375 18.44125 20.625 19.3125 C23.39943444 22.15329361 23.39943444 22.15329361 27.25 21.6875 C30.61037282 21.02734142 30.61037282 21.02734142 32.5625 18.75 C31.98905063 21.61724686 31.7010485 22.6114515 29.5625 24.75 C29.31680728 27.54216791 29.18886862 30.24240605 29.1484375 33.0390625 C29.12907135 33.85748627 29.1097052 34.67591003 29.0897522 35.51913452 C29.02988918 38.13764976 28.98354468 40.75620881 28.9375 43.375 C28.89932636 45.14845686 28.86027499 46.92189505 28.8203125 48.6953125 C28.72418229 53.04672375 28.64017649 57.39822179 28.5625 61.75 C29.8825 62.08 31.2025 62.41 32.5625 62.75 C10.7825 62.75 -10.9975 62.75 -33.4375 62.75 C-33.4375 62.09 -33.4375 61.43 -33.4375 60.75 C-32.1175 60.75 -30.7975 60.75 -29.4375 60.75 C-29.4375 48.54 -29.4375 36.33 -29.4375 23.75 C-30.7575 23.09 -32.0775 22.43 -33.4375 21.75 C-34.24117324 14.86137226 -33.26197252 9.27355825 -29.63647461 3.29003906 C-23.09744927 -3.38600876 -8.43994357 -0.35489614 0 0 Z " fill="#353A42" transform="translate(40.4375,10.25)"/>
<path d="M0 0 C9.9 0 19.8 0 30 0 C30 0.99 30 1.98 30 3 C28.35 3 26.7 3 25 3 C25 7.62 25 12.24 25 17 C29.95 17 34.9 17 40 17 C39.9175 14.89625 39.835 12.7925 39.75 10.625 C39.70359375 9.44164062 39.6571875 8.25828125 39.609375 7.0390625 C39.34351201 3.88708247 39.34351201 3.88708247 36.953125 2.5859375 C36.30859375 2.39257812 35.6640625 2.19921875 35 2 C35 1.34 35 0.68 35 0 C40.28 0 45.56 0 51 0 C51 0.66 51 1.32 51 2 C49.35 2.33 47.7 2.66 46 3 C46 13.23 46 23.46 46 34 C47.65 34.33 49.3 34.66 51 35 C51 35.66 51 36.32 51 37 C45.72 37 40.44 37 35 37 C35 36.01 35 35.02 35 34 C36.32 34 37.64 34 39 34 C39.33 29.38 39.66 24.76 40 20 C35.05 20 30.1 20 25 20 C25 24.62 25 29.24 25 34 C26.65 34.33 28.3 34.66 30 35 C30 35.66 30 36.32 30 37 C24.39 37 18.78 37 13 37 C13 36.01 13 35.02 13 34 C14.65 34 16.3 34 18 34 C18 23.77 18 13.54 18 3 C15.03 3 12.06 3 9 3 C8.9906543 3.75619629 8.98130859 4.51239258 8.97167969 5.29150391 C8.917808 8.73665134 8.83419159 12.18046562 8.75 15.625 C8.72873047 17.40970703 8.72873047 17.40970703 8.70703125 19.23046875 C8.3940686 30.43453156 8.3940686 30.43453156 4 35 C0.83949345 37.28549027 -1.91897111 37.21621497 -5.75 37.125 C-7.22726563 37.09792969 -7.22726563 37.09792969 -8.734375 37.0703125 C-9.48203125 37.04710937 -10.2296875 37.02390625 -11 37 C-11 36.01 -11 35.02 -11 34 C-8.15485529 32.57742765 -5.33922641 32.67362538 -2.19140625 32.4765625 C0.45719377 31.90057462 1.35485414 31.12309343 3 29 C4.01973129 25.94080612 4.11533602 23.87581975 4.09765625 20.67578125 C4.09282227 19.13374023 4.09282227 19.13374023 4.08789062 17.56054688 C4.07951172 16.48869141 4.07113281 15.41683594 4.0625 14.3125 C4.05798828 13.22904297 4.05347656 12.14558594 4.04882812 11.02929688 C4.03703743 8.35280915 4.02058063 5.67643223 4 3 C2.68 3 1.36 3 0 3 C0 2.01 0 1.02 0 0 Z " fill="#4B4E54" transform="translate(182,25)"/>
<path d="M0 0 C0.97130859 0.00322266 1.94261719 0.00644531 2.94335938 0.00976562 C3.91080078 -0.00634766 4.87824219 -0.02246094 5.875 -0.0390625 C6.80376953 -0.03970703 7.73253906 -0.04035156 8.68945312 -0.04101562 C9.54079834 -0.04399658 10.39214355 -0.04697754 11.26928711 -0.05004883 C13.50585938 0.32226562 13.50585938 0.32226562 15.28857422 1.56689453 C16.83364589 3.79494613 16.85309749 5.07610582 16.79882812 7.77148438 C16.78758911 8.91750122 16.78758911 8.91750122 16.77612305 10.08666992 C16.74881104 11.0512915 16.72149902 12.01591309 16.69335938 13.00976562 C16.63148437 16.08289063 16.56960937 19.15601563 16.50585938 22.32226562 C7.59585938 22.32226562 -1.31414063 22.32226562 -10.49414062 22.32226562 C-10.37039062 19.06351563 -10.24664062 15.80476563 -10.11914062 12.44726562 C-10.0851416 11.42133301 -10.05114258 10.39540039 -10.01611328 9.33837891 C-9.98050293 8.53126465 -9.94489258 7.72415039 -9.90820312 6.89257812 C-9.87678223 6.06516113 -9.84536133 5.23774414 -9.81298828 4.38525391 C-8.97722413 -1.02225531 -4.3274265 0.0330797 0 0 Z " fill="#636A72" transform="translate(48.494140625,40.677734375)"/>
<path d="M0 0 C3 1 3 1 4.01147461 2.82592773 C4.45245483 3.99297241 4.45245483 3.99297241 4.90234375 5.18359375 C5.23556641 6.02857422 5.56878906 6.87355469 5.91210938 7.74414062 C6.59391021 9.53500415 7.2736098 11.3266691 7.95117188 13.11914062 C8.28568359 13.96541016 8.62019531 14.81167969 8.96484375 15.68359375 C9.2599585 16.46275146 9.55507324 17.24190918 9.85913086 18.04467773 C11.25170775 20.43139897 12.54667928 20.85260362 15 22 C16.046875 24.8203125 16.046875 24.8203125 16.75 28.125 C16.99234375 29.22070312 17.2346875 30.31640625 17.484375 31.4453125 C17.65453125 32.28835937 17.8246875 33.13140625 18 34 C18.66 34 19.32 34 20 34 C20 34.99 20 35.98 20 37 C15.05 37 10.1 37 5 37 C5 36.01 5 35.02 5 34 C6.32 34 7.64 34 9 34 C8.01 31.03 7.02 28.06 6 25 C-0.435 25.495 -0.435 25.495 -7 26 C-7.99 28.64 -8.98 31.28 -10 34 C-8.68 34 -7.36 34 -6 34 C-6 34.99 -6 35.98 -6 37 C-9.96 37 -13.92 37 -18 37 C-18 36.01 -18 35.02 -18 34 C-16.515 33.505 -16.515 33.505 -15 33 C-13.5022137 30.41890603 -13.5022137 30.41890603 -12.1875 27.20703125 C-11.41019531 25.42522461 -11.41019531 25.42522461 -10.6171875 23.60742188 C-10.07772173 22.34261985 -9.53866268 21.07764427 -9 19.8125 C-7.94058396 17.35933355 -6.87611867 14.90838124 -5.8125 12.45703125 C-5.34457031 11.36366455 -4.87664062 10.27029785 -4.39453125 9.14379883 C-3.01978093 6.04459366 -1.54019324 3.01990323 0 0 Z " fill="#6B7486" transform="translate(104,25)"/>
<path d="M0 0 C5.70411972 2.75020058 9.52093546 7.1943275 12 13 C12.98447862 19.73108637 12.03036117 25.47054107 8 31 C3.69458765 35.4152443 0.3843836 37.16753322 -5.75 37.3125 C-11.03099209 37.26196419 -14.00639067 36.69408863 -18 33 C-22.7545417 27.84924649 -24.51249726 23.28601936 -24.3046875 16.3359375 C-23.54905835 10.54278072 -20.82418859 6.3467261 -16.5 2.5 C-11.3527771 -1.02787187 -6.01220379 -0.99074344 0 0 Z M-15 8 C-16.18813473 11.56440418 -16.24187953 14.55474782 -16.3125 18.3125 C-16.34988281 19.60800781 -16.38726562 20.90351562 -16.42578125 22.23828125 C-15.83848286 27.42698169 -13.62893228 30.37106772 -10 34 C-4.12053105 34.68707288 -4.12053105 34.68707288 0.875 31.875 C4.75364786 26.6274176 5.75985382 21.45291241 5 15 C4.08114097 10.86848787 3.01480249 7.24031416 0.3125 3.9375 C-6.40850273 1.21276916 -10.66064848 2.34569347 -15 8 Z " fill="#B9C7DF" transform="translate(258,25)"/>
<path d="M0 0 C0.83982422 0.00193359 1.67964844 0.00386719 2.54492188 0.00585938 C3.84719727 0.02422852 3.84719727 0.02422852 5.17578125 0.04296875 C6.49545898 0.04393555 6.49545898 0.04393555 7.84179688 0.04492188 C14.34788068 0.09006818 14.34788068 0.09006818 15.48828125 1.23046875 C15.56054627 3.08334377 15.57209345 4.93880753 15.55078125 6.79296875 C15.54175781 7.80488281 15.53273438 8.81679688 15.5234375 9.859375 C15.51183594 10.64183594 15.50023437 11.42429687 15.48828125 12.23046875 C14.82828125 12.23046875 14.16828125 12.23046875 13.48828125 12.23046875 C12.11561305 10.25725822 10.78400508 8.25503723 9.48828125 6.23046875 C7.63769624 3.943521 7.63769624 3.943521 4.7734375 4.03515625 C3.70996094 4.05835938 2.64648438 4.0815625 1.55078125 4.10546875 C-0.04056641 4.13253906 -0.04056641 4.13253906 -1.6640625 4.16015625 C-2.60378906 4.18335938 -3.54351562 4.2065625 -4.51171875 4.23046875 C-5.50171875 4.23046875 -6.49171875 4.23046875 -7.51171875 4.23046875 C-8.17171875 4.89046875 -8.83171875 5.55046875 -9.51171875 6.23046875 C-8.85171875 6.56046875 -8.19171875 6.89046875 -7.51171875 7.23046875 C-7.75148438 8.28427734 -7.75148438 8.28427734 -7.99609375 9.359375 C-9.10468009 15.53218531 -9.34792965 21.84726768 -7.26171875 27.79296875 C-5.45639209 30.30753089 -4.14942775 31.6368529 -1.51171875 33.23046875 C1.30658008 33.59147409 1.30658008 33.59147409 4.23828125 33.41796875 C5.223125 33.39089844 6.20796875 33.36382812 7.22265625 33.3359375 C8.34414063 33.28373047 8.34414063 33.28373047 9.48828125 33.23046875 C9.40145365 31.10468968 9.29328615 28.97977294 9.17578125 26.85546875 C9.11777344 25.67210938 9.05976563 24.48875 9 23.26953125 C8.83113281 22.26664063 8.66226562 21.26375 8.48828125 20.23046875 C7.49828125 19.57046875 6.50828125 18.91046875 5.48828125 18.23046875 C5.48828125 17.57046875 5.48828125 16.91046875 5.48828125 16.23046875 C10.10828125 16.23046875 14.72828125 16.23046875 19.48828125 16.23046875 C19.48828125 17.22046875 19.48828125 18.21046875 19.48828125 19.23046875 C18.49828125 19.56046875 17.50828125 19.89046875 16.48828125 20.23046875 C16.15828125 24.85046875 15.82828125 29.47046875 15.48828125 34.23046875 C15.15828125 34.23046875 14.82828125 34.23046875 14.48828125 34.23046875 C14.48828125 29.28046875 14.48828125 24.33046875 14.48828125 19.23046875 C13.16828125 19.23046875 11.84828125 19.23046875 10.48828125 19.23046875 C10.51148438 20.29007813 10.5346875 21.3496875 10.55859375 22.44140625 C10.57735069 23.82942005 10.59555097 25.21744145 10.61328125 26.60546875 C10.63003906 27.30414063 10.64679688 28.0028125 10.6640625 28.72265625 C10.68172392 30.55944361 10.59131386 32.39648838 10.48828125 34.23046875 C9.82828125 34.89046875 9.16828125 35.55046875 8.48828125 36.23046875 C8.48828125 36.56046875 8.48828125 36.89046875 8.48828125 37.23046875 C-5.0326378 38.15797082 -5.0326378 38.15797082 -10.92578125 33.70703125 C-15.46212407 29.48353966 -17.14983942 25.52070134 -17.53515625 19.45703125 C-17.46378861 12.6771052 -14.70031082 8.79212815 -10.36328125 3.9296875 C-7.11444287 0.94815861 -4.38548412 -0.02344195 0 0 Z " fill="#5B6471" transform="translate(289.51171875,24.76953125)"/>
<path d="M0 0 C0.42732422 0.7007666 0.85464844 1.4015332 1.29492188 2.12353516 C1.75253906 2.83251953 2.21015625 3.54150391 2.68164062 4.27197266 C7.42262684 12.38717429 7.42262684 12.38717429 6.29492188 17.12353516 C3.40642273 19.83697375 1.69051259 20.11659497 -2.26757812 20.18603516 C-5.70507812 19.12353516 -5.70507812 19.12353516 -7.45507812 16.18603516 C-10.14258317 12.52804218 -11.12949688 12.50440841 -15.45507812 11.74853516 C-18.05382813 11.43916016 -18.05382813 11.43916016 -20.70507812 11.12353516 C-21.03507812 7.16353516 -21.36507812 3.20353516 -21.70507812 -0.87646484 C-18.43457232 -1.15174987 -15.16637418 -1.39759082 -11.89257812 -1.62646484 C-10.49942383 -1.74828125 -10.49942383 -1.74828125 -9.078125 -1.87255859 C-7.73911133 -1.95957031 -7.73911133 -1.95957031 -6.37304688 -2.04833984 C-5.5508667 -2.11118164 -4.72868652 -2.17402344 -3.8815918 -2.23876953 C-1.70507812 -1.87646484 -1.70507812 -1.87646484 0 0 Z " fill="#653832" transform="translate(67.705078125,12.87646484375)"/>
<path d="M0 0 C9.9 0 19.8 0 30 0 C30 0.99 30 1.98 30 3 C28.35 3 26.7 3 25 3 C25 7.29 25 11.58 25 16 C24.67 16 24.34 16 24 16 C24 22.27 24 28.54 24 35 C22.35 35 20.7 35 19 35 C18.20414744 24.312837 17.87174996 13.71600323 18 3 C15.03 3 12.06 3 9 3 C8.9906543 3.75619629 8.98130859 4.51239258 8.97167969 5.29150391 C8.917808 8.73665134 8.83419159 12.18046562 8.75 15.625 C8.72873047 17.40970703 8.72873047 17.40970703 8.70703125 19.23046875 C8.3940686 30.43453156 8.3940686 30.43453156 4 35 C0.83949345 37.28549027 -1.91897111 37.21621497 -5.75 37.125 C-7.22726563 37.09792969 -7.22726563 37.09792969 -8.734375 37.0703125 C-9.48203125 37.04710937 -10.2296875 37.02390625 -11 37 C-11 36.01 -11 35.02 -11 34 C-8.15485529 32.57742765 -5.33922641 32.67362538 -2.19140625 32.4765625 C0.45719377 31.90057462 1.35485414 31.12309343 3 29 C4.01973129 25.94080612 4.11533602 23.87581975 4.09765625 20.67578125 C4.09282227 19.13374023 4.09282227 19.13374023 4.08789062 17.56054688 C4.07951172 16.48869141 4.07113281 15.41683594 4.0625 14.3125 C4.05798828 13.22904297 4.05347656 12.14558594 4.04882812 11.02929688 C4.03703743 8.35280915 4.02058063 5.67643223 4 3 C2.68 3 1.36 3 0 3 C0 2.01 0 1.02 0 0 Z " fill="#575C68" transform="translate(182,25)"/>
<path d="M0 0 C0.66 0 1.32 0 2 0 C2 4.62 2 9.24 2 14 C6.72583071 13.09855644 6.72583071 13.09855644 10.5 10.375 C11.26297107 6.75088741 10.60754058 3.64524347 10 0 C14.75 0.75 14.75 0.75 17 3 C17.33952963 6.00726248 17.57289987 8.10112665 17 11 C14.6875 13.5 14.6875 13.5 12 15 C11.01 15 10.02 15 9 15 C11.59060733 19.22173047 14.06585313 22.02540115 18 25 C18.86625 25.886875 19.7325 26.77375 20.625 27.6875 C22.85348846 30.19296794 22.85348846 30.19296794 26 31 C26 31.99 26 32.98 26 34 C22.33086283 35.07447618 19.64723466 35.22864404 16 34 C11.99794174 30.12779438 9.08376808 25.21498333 6.19165039 20.49047852 C4.97260673 18.68892287 4.97260673 18.68892287 2 18 C2 22.29 2 26.58 2 31 C3.65 31.33 5.3 31.66 7 32 C7 32.66 7 33.32 7 34 C3.04 34 -0.92 34 -5 34 C-4.67 33.34 -4.34 32.68 -4 32 C-2.35 32 -0.7 32 1 32 C0.67 31.34 0.34 30.68 0 30 C-0.08573394 27.74879258 -0.10712188 25.49500697 -0.09765625 23.2421875 C-0.0962413 22.57913605 -0.09482635 21.91608459 -0.09336853 21.23294067 C-0.08776754 19.11358137 -0.075215 16.99432741 -0.0625 14.875 C-0.05748512 13.43880361 -0.05292219 12.00260556 -0.04882812 10.56640625 C-0.03779782 7.04423655 -0.02053259 3.52212855 0 0 Z " fill="#848EA2" transform="translate(358,28)"/>
<path d="M0 0 C0.33 0 0.66 0 1 0 C1.02465098 4.96622349 1.04283649 9.93241166 1.05493164 14.89868164 C1.0599719 16.58944316 1.06680405 18.28020029 1.07543945 19.97094727 C1.08751857 22.39600707 1.09323123 24.82100944 1.09765625 27.24609375 C1.10281754 28.00651474 1.10797882 28.76693573 1.11329651 29.55039978 C1.11349238 31.3673257 1.06197277 33.18413127 1 35 C0 36 0 36 -3.05102539 36.11352539 C-4.39991271 36.11336634 -5.74880614 36.10767612 -7.09765625 36.09765625 C-8.16094398 36.09553383 -8.16094398 36.09553383 -9.24571228 36.09336853 C-11.51801712 36.08775443 -13.79022475 36.07519963 -16.0625 36.0625 C-17.59960796 36.05748681 -19.13671745 36.05292359 -20.67382812 36.04882812 C-24.44928667 36.0386297 -28.22453404 36.01905732 -32 36 C-32 27.75 -32 19.5 -32 11 C-31.67 11 -31.34 11 -31 11 C-30.67 16.61 -30.34 22.22 -30 28 C-26.98552734 27.98259766 -26.98552734 27.98259766 -23.91015625 27.96484375 C-21.97078576 27.9578926 -20.03141497 27.95097604 -18.09204102 27.94506836 C-16.74079614 27.94002943 -15.38955674 27.93319823 -14.03833008 27.92456055 C-12.09979566 27.91247581 -10.161222 27.90730172 -8.22265625 27.90234375 C-6.47094116 27.89448853 -6.47094116 27.89448853 -4.68383789 27.88647461 C-2 28 -2 28 -1 29 C-0.67 19.43 -0.34 9.86 0 0 Z " fill="#C2CFDB" transform="translate(67,35)"/>
<path d="M0 0 C3.96 0 7.92 0 12 0 C12 8.25 12 16.5 12 25 C8.04 25 4.08 25 0 25 C0 16.75 0 8.5 0 0 Z " fill="#FCFBFC" transform="translate(21,46)"/>
<path d="M0 0 C3 1 3 1 3.9831543 2.64233398 C4.3994812 3.68369507 4.3994812 3.68369507 4.82421875 4.74609375 C5.13037109 5.50083984 5.43652344 6.25558594 5.75195312 7.03320312 C6.06068359 7.82662109 6.36941406 8.62003906 6.6875 9.4375 C7.00783203 10.22705078 7.32816406 11.01660156 7.65820312 11.83007812 C10 17.6870669 10 17.6870669 10 20 C10.99 20 11.98 20 13 20 C13.66 22.97 14.32 25.94 15 29 C15.99 29 16.98 29 18 29 C18 30.65 18 32.3 18 34 C17.34 34 16.68 34 16 34 C16 34.33 16 34.66 16 35 C14.02 35 12.04 35 10 35 C9.01 31.37 8.02 27.74 7 24 C3.37 24 -0.26 24 -4 24 C-4 23.67 -4 23.34 -4 23 C-0.7 23 2.6 23 6 23 C4.96593327 21.74050951 4.96593327 21.74050951 2.71484375 21.90234375 C1.79832031 21.91394531 0.88179688 21.92554687 -0.0625 21.9375 C-0.98160156 21.94652344 -1.90070313 21.95554687 -2.84765625 21.96484375 C-3.55792969 21.97644531 -4.26820313 21.98804687 -5 22 C-4.33501617 17.61110675 -2.81242323 14.0188515 -1 10 C-0.34 10.33 0.32 10.66 1 11 C0.34 10.34 -0.32 9.68 -1 9 C-1.33 9 -1.66 9 -2 9 C-2.25 3.375 -2.25 3.375 0 0 Z " fill="#686E7B" transform="translate(328,25)"/>
<path d="M0 0 C15.51 0 31.02 0 47 0 C47 0.99 47 1.98 47 3 C45.68 3.33 44.36 3.66 43 4 C43 12.91 43 21.82 43 31 C41 29 41 29 40.77294922 26.38623047 C40.78342285 25.30744629 40.79389648 24.22866211 40.8046875 23.1171875 C40.81113281 21.95058594 40.81757813 20.78398438 40.82421875 19.58203125 C40.84097656 18.35871094 40.85773438 17.13539062 40.875 15.875 C40.88402344 14.64394531 40.89304688 13.41289063 40.90234375 12.14453125 C40.92597452 9.09616185 40.95891946 6.04817618 41 3 C38.525 2.505 38.525 2.505 36 2 C36.495 2.99 36.495 2.99 37 4 C37.15411106 6.0307477 37.24982453 8.06606421 37.31640625 10.1015625 C37.35830078 11.31328125 37.40019531 12.525 37.44335938 13.7734375 C37.48267578 15.04445313 37.52199219 16.31546875 37.5625 17.625 C37.60568359 18.90375 37.64886719 20.1825 37.69335938 21.5 C37.79969886 24.66655348 37.90172833 27.83318753 38 31 C37.34 30.67 36.68 30.34 36 30 C35.67 21.09 35.34 12.18 35 3 C33.68 3 32.36 3 31 3 C30.67 5.31 30.34 7.62 30 10 C29.01 9.67 28.02 9.34 27 9 C26.6596875 8.01 26.6596875 8.01 26.3125 7 C25.879375 6.34 25.44625 5.68 25 5 C22.36 4.67 19.72 4.34 17 4 C17.33 13.9 17.66 23.8 18 34 C19.32 34 20.64 34 22 34 C22 34.99 22 35.98 22 37 C16.72 37 11.44 37 6 37 C6 36.01 6 35.02 6 34 C7.98 33.505 7.98 33.505 10 33 C10.33 23.43 10.66 13.86 11 4 C4.38569507 4.43126321 4.38569507 4.43126321 1 7 C1.66 5.68 2.32 4.36 3 3 C5.97 3 8.94 3 12 3 C12 13.23 12 23.46 12 34 C13.65 34.33 15.3 34.66 17 35 C16.67 34.34 16.34 33.68 16 33 C15.91426606 30.74879258 15.89287812 28.49500697 15.90234375 26.2421875 C15.9037587 25.57913605 15.90517365 24.91608459 15.90663147 24.23294067 C15.91223246 22.11358137 15.924785 19.99432741 15.9375 17.875 C15.94251488 16.43880361 15.94707781 15.00260556 15.95117188 13.56640625 C15.96220218 10.04423655 15.97946741 6.52212855 16 3 C17.64574566 2.97311849 19.29161413 2.95365877 20.9375 2.9375 C21.85402344 2.92589844 22.77054688 2.91429687 23.71484375 2.90234375 C26 3 26 3 27 4 C27.33 3.01 27.66 2.02 28 1 C18.76 1.33 9.52 1.66 0 2 C0 1.34 0 0.68 0 0 Z " fill="#242732" transform="translate(126,25)"/>
<path d="M0 0 C2.4731789 0.06021484 4.94649732 0.11496389 7.41992188 0.1640625 C13.47049706 0.29608691 19.51585622 0.49662212 25.5625 0.75 C25.5625 1.08 25.5625 1.41 25.5625 1.75 C18.9625 1.75 12.3625 1.75 5.5625 1.75 C6.0575 3.73 6.0575 3.73 6.5625 5.75 C6.68455329 8.42540816 6.60717313 11.06961238 6.5625 13.75 C12.0075 14.245 12.0075 14.245 17.5625 14.75 C17.5625 15.08 17.5625 15.41 17.5625 15.75 C14.2625 15.75 10.9625 15.75 7.5625 15.75 C7.5625 17.07 7.5625 18.39 7.5625 19.75 C6.9025 19.75 6.2425 19.75 5.5625 19.75 C5.0675 10.84 5.0675 10.84 4.5625 1.75 C-5.3375 1.75 -15.2375 1.75 -25.4375 1.75 C-26.0975 3.73 -26.7575 5.71 -27.4375 7.75 C-28.3938874 9.44207001 -29.38160931 11.11816893 -30.4375 12.75 C-27.1375 13.08 -23.8375 13.41 -20.4375 13.75 C-20.1075 12.43 -19.7775 11.11 -19.4375 9.75 C-18.50847847 7.38171712 -17.46703585 5.07764627 -16.4375 2.75 C-15.02062881 7.00061356 -16.24429961 9.46851625 -17.4375 13.75 C-18.0975 13.75 -18.7575 13.75 -19.4375 13.75 C-19.251875 14.678125 -19.06625 15.60625 -18.875 16.5625 C-18.4375 19.75 -18.4375 19.75 -19.4375 22.75 C-21.39439659 22.97142255 -23.35311952 23.1767568 -25.3125 23.375 C-26.94832031 23.54902344 -26.94832031 23.54902344 -28.6171875 23.7265625 C-29.54789063 23.73429687 -30.47859375 23.74203125 -31.4375 23.75 C-33.4375 21.75 -33.4375 21.75 -34 17.875 C-33.68746763 12.00343173 -32.49490008 6.22724563 -28.25527954 1.88397217 C-20.81932476 -2.75474533 -8.34073002 -0.35072425 0 0 Z " fill="#704744" transform="translate(40.4375,10.25)"/>
<path d="M0 0 C4.95 0 9.9 0 15 0 C15.125 11.75 15.125 11.75 14 14 C12.68 14 11.36 14 10 14 C9.67 14.99 9.34 15.98 9 17 C5.96036153 20.03963847 0.91502378 19.18398318 -3.0625 19.1875 C-3.79533203 19.19974609 -4.52816406 19.21199219 -5.28320312 19.22460938 C-7.19026507 19.22986299 -9.09684886 19.12218272 -11 19 C-11.66 18.34 -12.32 17.68 -13 17 C-7.06 17 -1.12 17 5 17 C4.67 16.34 4.34 15.68 4 15 C2.68 14.67 1.36 14.34 0 14 C0 9.38 0 4.76 0 0 Z " fill="#EAEBEC" transform="translate(207,45)"/>
<path d="M0 0 C1.65 1.65 3.3 3.3 5 5 C4.67 5.99 4.34 6.98 4 8 C3.67 7.34 3.34 6.68 3 6 C1.35 9.3 -0.3 12.6 -2 16 C1.63 15.67 5.26 15.34 9 15 C9.66 16.65 10.32 18.3 11 20 C11.556875 20.99 11.556875 20.99 12.125 22 C13.19376273 24.44288623 13.1465693 26.36175261 13 29 C15.47266765 28.65555119 15.47266765 28.65555119 18 28 C18.33 27.34 18.66 26.68 19 26 C19.33 26.33 19.66 26.66 20 27 C21.34747084 27.23075082 22.70377565 27.41153063 24.0625 27.5625 C25.361875 27.706875 26.66125 27.85125 28 28 C27 30 27 30 25.421875 30.62109375 C22.03082655 31.15162875 18.67142682 31.10454022 15.25 31.0625 C14.55261719 31.05798828 13.85523438 31.05347656 13.13671875 31.04882812 C11.42444197 31.0371002 9.71220967 31.01916653 8 31 C8 30.01 8 29.02 8 28 C9.32 28 10.64 28 12 28 C11.01 25.03 10.02 22.06 9 19 C2.565 19.495 2.565 19.495 -4 20 C-4.99 22.64 -5.98 25.28 -7 28 C-5.68 28 -4.36 28 -3 28 C-3 28.99 -3 29.98 -3 31 C-6.96 31 -10.92 31 -15 31 C-15 30.01 -15 29.02 -15 28 C-14.01 27.67 -13.02 27.34 -12 27 C-10.45290607 24.32029089 -10.45290607 24.32029089 -9.08203125 20.99609375 C-8.81992355 20.39821548 -8.55781586 19.80033722 -8.2877655 19.18434143 C-7.45256536 17.27294394 -6.63243775 15.35548726 -5.8125 13.4375 C-5.24902732 12.14084954 -4.68458584 10.84461961 -4.11914062 9.54882812 C-2.73481729 6.37068912 -1.36393953 3.18694881 0 0 Z " fill="#454850" transform="translate(325,31)"/>
<path d="M0 0 C6.27 0 12.54 0 19 0 C19 8 19 8 18 12 C14.7 12 11.4 12 8 12 C8.33 8.7 8.66 5.4 9 2 C7.68 5.3 6.36 8.6 5 12 C1.37 12 -2.26 12 -6 12 C-4.02 8.04 -2.04 4.08 0 0 Z " fill="#BB7C79" transform="translate(15,12)"/>
<path d="M0 0 C1.48034764 0.47550561 2.95925021 0.95551216 4.4375 1.4375 C5.26121094 1.70433594 6.08492187 1.97117187 6.93359375 2.24609375 C9 3 9 3 10 4 C10.14393457 8.33530918 10.04212061 12.66157731 10 17 C5.05 17 0.1 17 -5 17 C-5 12.38 -5 7.76 -5 3 C-3.35 3 -1.7 3 0 3 C0 2.01 0 1.02 0 0 Z " fill="#F9F9F9" transform="translate(212,25)"/>
<path d="M0 0 C1.98 0 3.96 0 6 0 C6 0.66 6 1.32 6 2 C6.66 1.67 7.32 1.34 8 1 C8.02505615 1.86802246 8.0501123 2.73604492 8.07592773 3.63037109 C8.17099484 6.84713163 8.27023203 10.06372849 8.37231445 13.28027344 C8.41565846 14.6731259 8.45733396 16.06603131 8.49731445 17.45898438 C8.55502932 19.45976651 8.61921869 21.46035859 8.68359375 23.4609375 C8.72025146 24.66540527 8.75690918 25.86987305 8.79467773 27.11083984 C8.81052987 29.93996367 8.81052987 29.93996367 10 32 C12.12576782 32.46651207 12.12576782 32.46651207 14.5625 32.625 C15.38878906 32.69976562 16.21507812 32.77453125 17.06640625 32.8515625 C17.70449219 32.90054688 18.34257812 32.94953125 19 33 C19 33.33 19 33.66 19 34 C8.15875965 35.59074021 8.15875965 35.59074021 3.8125 33.375 C0.70427465 29.30215299 0.85576408 24.81715836 0.68359375 19.82421875 C0.64169922 18.66728516 0.59980469 17.51035156 0.55664062 16.31835938 C0.51732422 15.12017578 0.47800781 13.92199219 0.4375 12.6875 C0.39431641 11.46998047 0.35113281 10.25246094 0.30664062 8.99804688 C0.20078504 5.9988053 0.09870274 2.99948409 0 0 Z " fill="#AEBBCF" transform="translate(162,27)"/>
<path d="M0 0 C0.99 0.495 0.99 0.495 2 1 C4.03232634 1.08527628 6.06747006 1.10716135 8.1015625 1.09765625 C9.91914063 1.09282227 9.91914063 1.09282227 11.7734375 1.08789062 C13.04445312 1.07951172 14.31546875 1.07113281 15.625 1.0625 C17.543125 1.05573242 17.543125 1.05573242 19.5 1.04882812 C22.66671292 1.03701203 25.83333356 1.02053815 29 1 C28.67 2.32 28.34 3.64 28 5 C27.67 4.67 27.34 4.34 27 4 C23.7 3.67 20.4 3.34 17 3 C17.33 13.56 17.66 24.12 18 35 C16.02 35 14.04 35 12 35 C12.33 24.44 12.66 13.88 13 3 C8.545 3.495 8.545 3.495 4 4 C3.34 5.98 2.68 7.96 2 10 C1.34 10 0.68 10 0 10 C0 6.7 0 3.4 0 0 Z " fill="#B1C0DA" transform="translate(125,25)"/>
<path d="M0 0 C0.66 0.33 1.32 0.66 2 1 C0.73046875 2.46484375 -0.5390625 3.9296875 -1.80859375 5.39453125 C-5.25118878 10.03356915 -4.52735677 16.53138251 -4 22 C-2.73803425 25.43280837 -0.89916817 27.45050834 2.25 29.375 C3.11625 29.684375 3.11625 29.684375 4 30 C3.54625 29.649375 3.0925 29.29875 2.625 28.9375 C-1.26707088 24.29695395 -1.37705862 18.25276106 -1.26171875 12.44140625 C-0.86863659 8.77459508 0.2165123 6.22399699 2 3 C2.66 2.67 3.32 2.34 4 2 C3.67773438 2.8353125 3.35546875 3.670625 3.0234375 4.53125 C1.9028533 8.32926058 1.66519336 11.54497313 1.625 15.5 C1.59664062 16.7684375 1.56828125 18.036875 1.5390625 19.34375 C2.10556957 23.83739933 3.79180557 26.79180557 7 30 C8.62350493 30.07273768 10.25000468 30.08369559 11.875 30.0625 C12.75929687 30.05347656 13.64359375 30.04445313 14.5546875 30.03515625 C15.36164063 30.02355469 16.16859375 30.01195313 17 30 C17.99 30 18.98 30 20 30 C24.6191298 24.94095308 26.15805773 22.45291877 26.25 15.6875 C26.28867187 13.99173828 26.28867187 13.99173828 26.328125 12.26171875 C25.97045853 8.70634374 24.90486804 6.95673198 23 4 C23.33 3.34 23.66 2.68 24 2 C27.94215346 7.04032478 29.78533826 11.07925121 29.41796875 17.54296875 C28.21025066 24.6425452 24.73014513 28.88924371 19 33 C14.81634937 35.09182531 9.55592381 34.42935408 5 34 C-0.25476991 31.46645022 -3.43861266 27.81049721 -6.25 22.75 C-8.06627981 16.09030737 -7.41986961 10.78182616 -4.16796875 4.7265625 C-2.94389877 2.91706774 -1.59349174 1.48847653 0 0 Z " fill="#393E48" transform="translate(241,28)"/>
<path d="M0 0 C0 0.66 0 1.32 0 2 C-1.98 2.33 -3.96 2.66 -6 3 C-5.67 14.55 -5.34 26.1 -5 38 C-3.35 38.33 -1.7 38.66 0 39 C0 30.42 0 21.84 0 13 C0.66 13 1.32 13 2 13 C2 21.58 2 30.16 2 39 C5.96 39 9.92 39 14 39 C14 39.33 14 39.66 14 40 C5.31126982 40.89115181 -3.26860536 41.11624638 -12 41 C-12 40.34 -12 39.68 -12 39 C-10.68 39 -9.36 39 -8 39 C-8 26.46 -8 13.92 -8 1 C-2 0 -2 0 0 0 Z " fill="#404148" transform="translate(19,32)"/>
<path d="M0 0 C0.33 0.99 0.66 1.98 1 3 C0.34 4.32 -0.32 5.64 -1 7 C3.62 7 8.24 7 13 7 C16.42857143 14.28571429 16.42857143 14.28571429 16 19 C18.47266765 18.65555119 18.47266765 18.65555119 21 18 C21.33 17.34 21.66 16.68 22 16 C23.32 16.66 24.64 17.32 26 18 C26 18.99 26 19.98 26 21 C21.05 21 16.1 21 11 21 C11 20.01 11 19.02 11 18 C12.32 18 13.64 18 15 18 C13.515 13.545 13.515 13.545 12 9 C5.565 9.495 5.565 9.495 -1 10 C-1.99 12.64 -2.98 15.28 -4 18 C-2.68 18 -1.36 18 0 18 C0 18.99 0 19.98 0 21 C-3.96 21 -7.92 21 -12 21 C-12 20.01 -12 19.02 -12 18 C-11.01 17.67 -10.02 17.34 -9 17 C-7.3025965 13.99229216 -7.3025965 13.99229216 -5.8125 10.4375 C-5.01779297 8.64119141 -5.01779297 8.64119141 -4.20703125 6.80859375 C-3.80871094 5.88175781 -3.41039063 4.95492187 -3 4 C-2.34 4 -1.68 4 -1 4 C-0.67 2.68 -0.34 1.36 0 0 Z " fill="#4F5159" transform="translate(98,41)"/>
<path d="M0 0 C4.39718646 1.09929662 4.79997334 1.55450729 7.25 5.0625 C8.03117187 6.16271484 8.03117187 6.16271484 8.828125 7.28515625 C9.21484375 7.85105469 9.6015625 8.41695312 10 9 C9.35330586 10.34313399 8.68096422 11.67391178 8 13 C7.62641357 13.86262451 7.25282715 14.72524902 6.86791992 15.61401367 C5 18 5 18 1.8137207 18.56762695 C0.53070068 18.54144287 -0.75231934 18.51525879 -2.07421875 18.48828125 C-2.7580513 18.48120651 -3.44188385 18.47413177 -4.1464386 18.46684265 C-6.32791159 18.43888004 -8.50680494 18.37615064 -10.6875 18.3125 C-12.1672806 18.28741897 -13.64710149 18.26460544 -15.12695312 18.24414062 C-18.75213863 18.18905135 -22.37581753 18.10277108 -26 18 C-26 17.34 -26 16.68 -26 16 C-15.77 16 -5.54 16 5 16 C4.67 15.34 4.34 14.68 4 14 C2.68 13.67 1.36 13.34 0 13 C0 8.71 0 4.42 0 0 Z " fill="#E9E9EA" transform="translate(360,46)"/>
<path d="M0 0 C1.21816406 0.03480469 1.21816406 0.03480469 2.4609375 0.0703125 C3.68683594 0.09738281 3.68683594 0.09738281 4.9375 0.125 C5.87722656 0.15980469 5.87722656 0.15980469 6.8359375 0.1953125 C6.8359375 0.5253125 6.8359375 0.8553125 6.8359375 1.1953125 C5.134375 1.411875 5.134375 1.411875 3.3984375 1.6328125 C0.02816549 1.80702728 0.02816549 1.80702728 -1.1640625 3.1953125 C-1.23665196 5.38170703 -1.24780033 7.57031639 -1.2265625 9.7578125 C-1.21753906 10.95535156 -1.20851562 12.15289062 -1.19921875 13.38671875 C-1.18761719 14.31355469 -1.17601562 15.24039063 -1.1640625 16.1953125 C1.16746746 13.3592708 3.31788593 10.60319215 5.0859375 7.3828125 C5.9521875 5.805 5.9521875 5.805 6.8359375 4.1953125 C7.8359375 7.1953125 7.8359375 7.1953125 6.7265625 9.640625 C6.18515625 10.52492188 5.64375 11.40921875 5.0859375 12.3203125 C4.28929687 13.65449219 4.28929687 13.65449219 3.4765625 15.015625 C1.8359375 17.1953125 1.8359375 17.1953125 -1.1640625 18.1953125 C-1.1640625 18.8553125 -1.1640625 19.5153125 -1.1640625 20.1953125 C5.1059375 20.1953125 11.3759375 20.1953125 17.8359375 20.1953125 C16.5159375 18.4421875 15.1959375 16.6890625 13.8359375 14.8828125 C9.8359375 9.5703125 9.8359375 9.5703125 9.8359375 6.1953125 C10.4959375 6.1953125 11.1559375 6.1953125 11.8359375 6.1953125 C12.19945312 7.00935547 12.19945312 7.00935547 12.5703125 7.83984375 C12.90546875 8.55527344 13.240625 9.27070312 13.5859375 10.0078125 C14.07320312 11.06935547 14.07320312 11.06935547 14.5703125 12.15234375 C15.95436843 14.66339914 15.95436843 14.66339914 19.8359375 17.1953125 C19.8359375 12.9053125 19.8359375 8.6153125 19.8359375 4.1953125 C20.1659375 4.1953125 20.4959375 4.1953125 20.8359375 4.1953125 C20.8359375 9.8053125 20.8359375 15.4153125 20.8359375 21.1953125 C12.5859375 21.1953125 4.3359375 21.1953125 -4.1640625 21.1953125 C-4.2053125 18.1015625 -4.2465625 15.0078125 -4.2890625 11.8203125 C-4.30727051 10.84658691 -4.32547852 9.87286133 -4.34423828 8.86962891 C-4.3492334 8.10312012 -4.35422852 7.33661133 -4.359375 6.546875 C-4.36984863 5.76135254 -4.38032227 4.97583008 -4.39111328 4.16650391 C-4.04746786 1.18307043 -2.95164532 0.26639398 0 0 Z " fill="#393637" transform="translate(43.1640625,40.8046875)"/>
<path d="M0 0 C1.2694043 -0.00193359 1.2694043 -0.00193359 2.56445312 -0.00390625 C3.44939453 -0.00003906 4.33433594 0.00382812 5.24609375 0.0078125 C6.13490234 0.00394531 7.02371094 0.00007813 7.93945312 -0.00390625 C8.78443359 -0.00261719 9.62941406 -0.00132813 10.5 0 C11.66704468 0.00169189 11.66704468 0.00169189 12.85766602 0.00341797 C14.68359375 0.1328125 14.68359375 0.1328125 15.68359375 1.1328125 C15.75585877 2.98568752 15.76740595 4.84115128 15.74609375 6.6953125 C15.73707031 7.70722656 15.72804688 8.71914063 15.71875 9.76171875 C15.70714844 10.54417969 15.69554687 11.32664062 15.68359375 12.1328125 C15.02359375 12.1328125 14.36359375 12.1328125 13.68359375 12.1328125 C12.31092555 10.15960197 10.97931758 8.15738098 9.68359375 6.1328125 C7.83300874 3.84586475 7.83300874 3.84586475 4.96875 3.9375 C3.90527344 3.96070313 2.84179688 3.98390625 1.74609375 4.0078125 C0.15474609 4.03488281 0.15474609 4.03488281 -1.46875 4.0625 C-2.40847656 4.08570313 -3.34820312 4.10890625 -4.31640625 4.1328125 C-5.30640625 4.1328125 -6.29640625 4.1328125 -7.31640625 4.1328125 C-7.97640625 4.7928125 -8.63640625 5.4528125 -9.31640625 6.1328125 C-8.65640625 6.4628125 -7.99640625 6.7928125 -7.31640625 7.1328125 C-7.47882813 7.8340625 -7.64125 8.5353125 -7.80859375 9.2578125 C-8.34166893 12.27583815 -8.44921969 15.06994587 -8.44140625 18.1328125 C-8.44398438 19.1434375 -8.4465625 20.1540625 -8.44921875 21.1953125 C-8.32467352 23.94995994 -7.9375149 26.45120053 -7.31640625 29.1328125 C-10.44465704 26.27658352 -11.25078872 24.2483105 -11.50390625 19.9453125 C-11.29552266 15.70817957 -10.46008751 12.20717699 -9.31640625 8.1328125 C-10.63640625 8.4628125 -11.95640625 8.7928125 -13.31640625 9.1328125 C-10.98217188 3.19112503 -6.2196635 0.00900375 0 0 Z " fill="#3B4049" transform="translate(289.31640625,24.8671875)"/>
<path d="M0 0 C4.2008967 1.81894496 5.2224636 3.76777048 7 8 C7.96200204 11.22957829 8.28306358 14.39676295 8.5625 17.75 C8.68818359 19.22726563 8.68818359 19.22726563 8.81640625 20.734375 C8.87699219 21.48203125 8.93757813 22.2296875 9 23 C7.35 23.33 5.7 23.66 4 24 C4.12375 25.1446875 4.12375 25.1446875 4.25 26.3125 C4 29 4 29 2.375 30.6875 C-2.57954354 33.42553722 -7.05622512 34.27616156 -12.6875 34.25 C-13.80511719 34.25515625 -14.92273438 34.2603125 -16.07421875 34.265625 C-19 34 -19 34 -22 32 C-21.67 31.34 -21.34 30.68 -21 30 C-20.34 30.33 -19.68 30.66 -19 31 C-13.46957948 31.50502343 -8.58969476 31.73807257 -3.5 29.375 C1.42880798 24.69263242 4.10954164 20.11694617 4.3125 13.3125 C4.28873308 7.91740945 2.72621002 4.60047941 0 0 Z " fill="#EEEDEC" transform="translate(265,30)"/>
<path d="M0 0 C4.9962796 4.16356634 7.04953742 8.84351198 9 15 C9 15.66 9 16.32 9 17 C4.71 17 0.42 17 -4 17 C-4 16.01 -4 15.02 -4 14 C-4.33 13.01 -4.66 12.02 -5 11 C-4.00390625 8.30078125 -4.00390625 8.30078125 -2.5625 5.3125 C-2.08941406 4.31863281 -1.61632812 3.32476562 -1.12890625 2.30078125 C-0.75636719 1.54152344 -0.38382812 0.78226563 0 0 Z " fill="#444850" transform="translate(101,31)"/>
<path d="M0 0 C1.65 0 3.3 0 5 0 C5.33 10.89 5.66 21.78 6 33 C4.02 33 2.04 33 0 33 C0 22.11 0 11.22 0 0 Z " fill="#C2D0E6" transform="translate(222,27)"/>
<path d="M0 0 C1.98 0 3.96 0 6 0 C7.57314184 3.14628368 7.26696326 6.48581488 7.3125 9.9375 C7.34150391 10.66646484 7.37050781 11.39542969 7.40039062 12.14648438 C7.43862197 15.35497655 7.45073448 17.43795945 5.40234375 19.9921875 C2.22332571 21.32582433 -0.31331095 21.29060067 -3.75 21.1875 C-4.92046875 21.16042969 -6.0909375 21.13335937 -7.296875 21.10546875 C-8.18890625 21.07066406 -9.0809375 21.03585938 -10 21 C-10 20.34 -10 19.68 -10 19 C-8.54293274 18.49632243 -7.08429904 17.99717444 -5.625 17.5 C-4.81289063 17.2215625 -4.00078125 16.943125 -3.1640625 16.65625 C-1 16 -1 16 1 16 C0.67 10.72 0.34 5.44 0 0 Z " fill="#B9C9E3" transform="translate(299,43)"/>
<path d="M0 0 C2.97 0 5.94 0 9 0 C9 10.23 9 20.46 9 31 C10.65 31.33 12.3 31.66 14 32 C13.67 31.34 13.34 30.68 13 30 C12.91426606 27.74879258 12.89287812 25.49500697 12.90234375 23.2421875 C12.9037587 22.57913605 12.90517365 21.91608459 12.90663147 21.23294067 C12.91223246 19.11358137 12.924785 16.99432741 12.9375 14.875 C12.94251488 13.43880361 12.94707781 12.00260556 12.95117188 10.56640625 C12.96220218 7.04423655 12.97946741 3.52212855 13 0 C16.3 0 19.6 0 23 0 C23 0.99 23 1.98 23 3 C22.67 2.67 22.34 2.34 22 2 C19.36 1.67 16.72 1.34 14 1 C14.33 10.9 14.66 20.8 15 31 C16.32 31 17.64 31 19 31 C19 31.99 19 32.98 19 34 C13.72 34 8.44 34 3 34 C3 33.01 3 32.02 3 31 C4.32 30.67 5.64 30.34 7 30 C7.33 20.43 7.66 10.86 8 1 C1.38569507 1.43126321 1.38569507 1.43126321 -2 4 C-1.34 2.68 -0.68 1.36 0 0 Z " fill="#1A1D25" transform="translate(129,28)"/>
<path d="M0 0 C0.53625 0.680625 1.0725 1.36125 1.625 2.0625 C3.94790138 4.93556223 6.36356826 7.69794378 8.828125 10.44921875 C10 12 10 12 10 14 C3.73 14 -2.54 14 -9 14 C-9 13.34 -9 12.68 -9 12 C-8.2575 11.278125 -7.515 10.55625 -6.75 9.8125 C-3.69857402 6.69172343 -2.03053057 3.83544663 0 0 Z " fill="#E0E0E2" transform="translate(51,47)"/>
<path d="M0 0 C0.66 0 1.32 0 2 0 C2 4.62 2 9.24 2 14 C6.80396705 13.12543565 6.80396705 13.12543565 10.4375 10.1875 C11.07442486 7.71056999 11.14152557 5.54746027 11 3 C11.66 3.33 12.32 3.66 13 4 C13.3125 7.25 13.3125 7.25 13 11 C10.40444213 13.66570809 8.523188 14.825604 5 16 C5.66 17.32 6.32 18.64 7 20 C4.525 19.01 4.525 19.01 2 18 C2 22.29 2 26.58 2 31 C3.65 31.33 5.3 31.66 7 32 C7 32.66 7 33.32 7 34 C3.04 34 -0.92 34 -5 34 C-4.67 33.34 -4.34 32.68 -4 32 C-2.35 32 -0.7 32 1 32 C0.67 31.34 0.34 30.68 0 30 C-0.08573394 27.74879258 -0.10712188 25.49500697 -0.09765625 23.2421875 C-0.0962413 22.57913605 -0.09482635 21.91608459 -0.09336853 21.23294067 C-0.08776754 19.11358137 -0.075215 16.99432741 -0.0625 14.875 C-0.05748512 13.43880361 -0.05292219 12.00260556 -0.04882812 10.56640625 C-0.03779782 7.04423655 -0.02053259 3.52212855 0 0 Z " fill="#3A414C" transform="translate(358,28)"/>
<path d="M0 0 C0.66 0 1.32 0 2 0 C2 0.66 2 1.32 2 2 C4.97 2.495 4.97 2.495 8 3 C8 13.23 8 23.46 8 34 C5.57499488 31.57499488 5.73374717 30.89534204 5.65625 27.5703125 C5.62660156 26.69246094 5.59695312 25.81460938 5.56640625 24.91015625 C5.54449219 23.99105469 5.52257812 23.07195313 5.5 22.125 C5.45647515 20.31487813 5.40468886 18.50493181 5.34375 16.6953125 C5.31571289 15.4889917 5.31571289 15.4889917 5.28710938 14.25830078 C5.07567442 11.59995305 5.07567442 11.59995305 3 8 C-1.95 8 -6.9 8 -12 8 C-12 7.67 -12 7.34 -12 7 C-11.31292969 6.93941406 -10.62585937 6.87882812 -9.91796875 6.81640625 C-9.01691406 6.73261719 -8.11585937 6.64882813 -7.1875 6.5625 C-5.84751953 6.44068359 -5.84751953 6.44068359 -4.48046875 6.31640625 C-1.87256441 6.06510233 -1.87256441 6.06510233 1 5 C1.33 5.33 1.66 5.66 2 6 C2.33 5.01 2.66 4.02 3 3 C1.35 3.33 -0.3 3.66 -2 4 C-1.34 2.68 -0.68 1.36 0 0 Z " fill="#D5E1ED" transform="translate(59,32)"/>
<path d="M0 0 C5.28 0 10.56 0 16 0 C16 0.66 16 1.32 16 2 C14.35 2.33 12.7 2.66 11 3 C11 13.23 11 23.46 11 34 C10.67 34 10.34 34 10 34 C10 23.44 10 12.88 10 2 C8.68 2.33 7.36 2.66 6 3 C6 7.95 6 12.9 6 18 C0.06 18 -5.88 18 -12 18 C-12 14.04 -12 10.08 -12 6 C-11.67 6 -11.34 6 -11 6 C-10.67 9.3 -10.34 12.6 -10 16 C-5.05 16.33 -0.1 16.66 5 17 C4.87625 13.844375 4.87625 13.844375 4.75 10.625 C4.70359375 9.44164062 4.6571875 8.25828125 4.609375 7.0390625 C4.34351201 3.88708247 4.34351201 3.88708247 1.953125 2.5859375 C1.30859375 2.39257812 0.6640625 2.19921875 0 2 C0 1.34 0 0.68 0 0 Z " fill="#252932" transform="translate(217,25)"/>
<path d="M0 0 C2.97 0 5.94 0 9 0 C9 3.96 9 7.92 9 12 C5.7 12 2.4 12 -1 12 C-1.08159574 7.83861737 -0.98248524 4.0527516 0 0 Z " fill="#DB6A63" transform="translate(36,12)"/>
<path d="M0 0 C2.64 0 5.28 0 8 0 C10.31663844 3.93828536 12.43358249 7.69235185 14 12 C10.7 12 7.4 12 4 12 C0 4.5 0 4.5 0 0 Z " fill="#E37D78" transform="translate(57,12)"/>
<path d="M0 0 C3.57187114 0.89296778 4.94835855 1.93719283 7.3125 4.8125 C10.06603268 10.16222064 9.74405522 16.16780961 9 22 C6.85224303 26.53415361 4.04051223 29.08185228 0 32 C-0.66 31.67 -1.32 31.34 -2 31 C-1.38125 30.46375 -0.7625 29.9275 -0.125 29.375 C4.05625347 24.70183436 4.37522816 19.64277637 4.265625 13.60546875 C3.77348216 8.77812644 2.16198376 4.32396753 0 0 Z " fill="#BAC7E1" transform="translate(259,28)"/>
<path d="M0 0 C4.62 0 9.24 0 14 0 C14 0.99 14 1.98 14 3 C13.01 3.33 12.02 3.66 11 4 C10.67 8.62 10.34 13.24 10 18 C9.67 18 9.34 18 9 18 C9 13.05 9 8.1 9 3 C7.68 3 6.36 3 5 3 C5.02320313 4.05960938 5.04640625 5.11921875 5.0703125 6.2109375 C5.08906944 7.5989513 5.10726972 8.9869727 5.125 10.375 C5.14175781 11.07367188 5.15851563 11.77234375 5.17578125 12.4921875 C5.19344267 14.32897486 5.10303261 16.16601963 5 18 C4.34 18.66 3.68 19.32 3 20 C3 20.33 3 20.66 3 21 C0.87527424 21.05386629 -1.24983652 21.09273071 -3.375 21.125 C-4.55835938 21.14820312 -5.74171875 21.17140625 -6.9609375 21.1953125 C-10 21 -10 21 -12 19 C-11.34 18.67 -10.68 18.34 -10 18 C-10.99 17.01 -11.98 16.02 -13 15 C-12.67 14.34 -12.34 13.68 -12 13 C-11.1028125 13.99 -11.1028125 13.99 -10.1875 15 C-5.55838331 17.90454381 -1.32731026 17.33587245 4 17 C3.9131724 14.87422093 3.8050049 12.74930419 3.6875 10.625 C3.62949219 9.44164062 3.57148438 8.25828125 3.51171875 7.0390625 C3.34285156 6.03617188 3.17398437 5.03328125 3 4 C2.01 3.34 1.02 2.68 0 2 C0 1.34 0 0.68 0 0 Z " fill="#292B34" transform="translate(295,41)"/>
<path d="M0 0 C6.40504648 -0.48339973 6.40504648 -0.48339973 9 1.625 C10.36831008 4.87473645 10.0645504 6.66440876 9 10 C7.25 11.875 7.25 11.875 5 13 C3.35 13 1.7 13 0 13 C0 8.71 0 4.42 0 0 Z " fill="#F6F6F6" transform="translate(360,29)"/>
<path d="M0 0 C2.64 0 5.28 0 8 0 C8.50615298 1.26839526 9.00469099 2.53983102 9.5 3.8125 C9.7784375 4.52019531 10.056875 5.22789063 10.34375 5.95703125 C11 8 11 8 11 11 C7.37 11 3.74 11 0 11 C0 7.37 0 3.74 0 0 Z " fill="#F1F0EE" transform="translate(47,13)"/>
<path d="M0 0 C1.65 0 3.3 0 5 0 C5 10.89 5 21.78 5 33 C3.35 33 1.7 33 0 33 C0 22.11 0 11.22 0 0 Z " fill="#C0D0E7" transform="translate(354,27)"/>
<path d="M0 0 C1.65 0 3.3 0 5 0 C5 10.89 5 21.78 5 33 C3.35 33 1.7 33 0 33 C0 22.11 0 11.22 0 0 Z " fill="#BECDE5" transform="translate(201,27)"/>
<path d="M0 0 C3.625 -0.1875 3.625 -0.1875 7 0 C7 3.63 7 7.26 7 11 C3.7 11 0.4 11 -3 11 C-2.25 3.375 -2.25 3.375 0 0 Z " fill="#F3F6F6" transform="translate(26,13)"/>
<path d="M0 0 C0.99 0.33 1.98 0.66 3 1 C4.72795352 1.06802967 6.45835365 1.08495645 8.1875 1.0625 C9.08855469 1.05347656 9.98960937 1.04445313 10.91796875 1.03515625 C11.94857422 1.01775391 11.94857422 1.01775391 13 1 C13.33 1.66 13.66 2.32 14 3 C8.06 3.495 8.06 3.495 2 4 C2 4.99 2 5.98 2 7 C1.34 7 0.68 7 0 7 C-1.05619003 11.28297531 -1.11702092 15.42985646 -1.0625 19.8125 C-1.05798828 20.50537109 -1.05347656 21.19824219 -1.04882812 21.91210938 C-1.03713156 23.60811068 -1.01919924 25.30406703 -1 27 C-4.30409461 23.69590539 -4.15964648 20.59270479 -4.1875 16.125 C-4.20167969 15.09632812 -4.21585937 14.06765625 -4.23046875 13.0078125 C-3.99581369 9.94536512 -3.29184572 7.76751139 -2 5 C-2.99 4.67 -3.98 4.34 -5 4 C-2.6875 1.9375 -2.6875 1.9375 0 0 Z " fill="#C9CACE" transform="translate(284,27)"/>
<path d="M0 0 C2.52232816 1.06838946 3.92943591 2.15949858 6 4 C5.01 4 4.02 4 3 4 C3.67501286 6.02503858 4.36284357 8.04584324 5.0625 10.0625 C7.24669572 17.90574826 6.25959762 24.66590535 3 32 C2.01 32 1.02 32 0 32 C0.474375 31.2575 0.94875 30.515 1.4375 29.75 C4.53144403 24.30465851 4.8386087 18.62625968 3.43359375 12.55078125 C1.96018595 7.43766551 1.96018595 7.43766551 -2 4 C-3.95535049 3.7591321 -3.95535049 3.7591321 -6 3.875 C-6.680625 3.89304687 -7.36125 3.91109375 -8.0625 3.9296875 C-8.701875 3.95289063 -9.34125 3.97609375 -10 4 C-10.99 4 -11.98 4 -13 4 C-13 3.67 -13 3.34 -13 3 C-13.66 2.67 -14.32 2.34 -15 2 C-10.33813458 -1.10791028 -5.46043067 -0.61870492 0 0 Z " fill="#2E323D" transform="translate(258,25)"/>
<path d="M0 0 C0.33 0.66 0.66 1.32 1 2 C1.66 2.33 2.32 2.66 3 3 C2.34 3 1.68 3 1 3 C1.33 11.58 1.66 20.16 2 29 C2.24941885 23.16667154 2.24941885 23.16667154 2.47802734 17.33251953 C2.5136377 16.60661621 2.54924805 15.88071289 2.5859375 15.1328125 C2.63306885 14.01737061 2.63306885 14.01737061 2.68115234 12.87939453 C3 11 3 11 5 9 C5 17.58 5 26.16 5 35 C3.35 35 1.7 35 0 35 C0 23.45 0 11.9 0 0 Z " fill="#D7E2F0" transform="translate(14,36)"/>
<path d="M0 0 C0.99 0.33 1.98 0.66 3 1 C3.11656783 5.20809884 3.18737611 9.41577996 3.25 13.625 C3.30027344 15.40970703 3.30027344 15.40970703 3.3515625 17.23046875 C3.47651724 28.41391766 3.47651724 28.41391766 -1 33 C-4.16050655 35.28549027 -6.91897111 35.21621497 -10.75 35.125 C-12.22726563 35.09792969 -12.22726563 35.09792969 -13.734375 35.0703125 C-14.48203125 35.04710937 -15.2296875 35.02390625 -16 35 C-16 34.01 -16 33.02 -16 32 C-13.15485529 30.57742765 -10.33922641 30.67362538 -7.19140625 30.4765625 C-4.51322486 29.89414159 -3.67603675 29.14024518 -2 27 C-0.03547317 23.75846358 0.23716564 21.34490753 0.1953125 17.578125 C0.18886719 16.55332031 0.18242187 15.52851562 0.17578125 14.47265625 C0.15902344 13.40917969 0.14226562 12.34570312 0.125 11.25 C0.11597656 10.17105469 0.10695312 9.09210937 0.09765625 7.98046875 C0.07411305 5.32008722 0.04122799 2.66015664 0 0 Z " fill="#858791" transform="translate(187,27)"/>
<path d="M0 0 C2.97 0 5.94 0 9 0 C9 0.33 9 0.66 9 1 C6.36 1.33 3.72 1.66 1 2 C1.04189453 2.75095947 1.08378906 3.50191895 1.12695312 4.27563477 C1.29405039 7.70403696 1.39752994 11.13158282 1.5 14.5625 C1.60054687 16.33463867 1.60054687 16.33463867 1.703125 18.14257812 C1.89423258 26.67075374 1.89423258 26.67075374 -0.60546875 30.38647461 C-3.67111866 33.26563082 -6.05832634 34.79804793 -10.1875 35.68359375 C-11.115625 35.60238281 -12.04375 35.52117188 -13 35.4375 C-13.94875 35.37433594 -14.8975 35.31117187 -15.875 35.24609375 C-16.57625 35.16488281 -17.2775 35.08367188 -18 35 C-18 34.67 -18 34.34 -18 34 C-17.11248047 33.94392578 -17.11248047 33.94392578 -16.20703125 33.88671875 C-11.46033751 33.49180622 -7.80972926 33.11705121 -4 30 C-1.98537495 26.79671502 -1.71771797 24.17721591 -1.62109375 20.4296875 C-1.58693359 19.36878906 -1.55277344 18.30789062 -1.51757812 17.21484375 C-1.49115234 16.11269531 -1.46472656 15.01054688 -1.4375 13.875 C-1.37772054 11.68478234 -1.31411375 9.49466473 -1.24609375 7.3046875 C-1.22216553 6.33515137 -1.1982373 5.36561523 -1.17358398 4.36669922 C-1 2 -1 2 0 0 Z " fill="#BABDC0" transform="translate(191,28)"/>
<path d="M0 0 C0.66 0.33 1.32 0.66 2 1 C4.3329866 1.04022391 6.66706666 1.04320247 9 1 C9 1.66 9 2.32 9 3 C10.65 2.67 12.3 2.34 14 2 C13.67 3.32 13.34 4.64 13 6 C12.67 5.34 12.34 4.68 12 4 C11.67 4.66 11.34 5.32 11 6 C11.99 6.66 12.98 7.32 14 8 C7.4 8 0.8 8 -6 8 C-6.33 7.01 -6.66 6.02 -7 5 C-6.34 5 -5.68 5 -5 5 C-5 4.34 -5 3.68 -5 3 C-4.360625 2.87625 -3.72125 2.7525 -3.0625 2.625 C-2.0415625 2.315625 -2.0415625 2.315625 -1 2 C-0.67 1.34 -0.34 0.68 0 0 Z " fill="#BACAD5" transform="translate(48,33)"/>
<path d="M0 0 C16.83 0 33.66 0 51 0 C51 0.33 51 0.66 51 1 C44.4 1 37.8 1 31 1 C31.33 2.32 31.66 3.64 32 5 C32.12205329 7.67540816 32.04467313 10.31961238 32 13 C37.445 13.495 37.445 13.495 43 14 C43 14.33 43 14.66 43 15 C39.7 15 36.4 15 33 15 C33 16.32 33 17.64 33 19 C32.34 19 31.68 19 31 19 C30.67 13.06 30.34 7.12 30 1 C20.1 1 10.2 1 0 1 C0 0.67 0 0.34 0 0 Z " fill="#382224" transform="translate(15,11)"/>
<path d="M0 0 C5.28 0 10.56 0 16 0 C16 0.66 16 1.32 16 2 C13.69 2.33 11.38 2.66 9 3 C8.67 10.92 8.34 18.84 8 27 C7.67 27 7.34 27 7 27 C7 19.08 7 11.16 7 3 C6.67 3 6.34 3 6 3 C6 10.26 6 17.52 6 25 C5.67 25 5.34 25 5 25 C4.67 17.74 4.34 10.48 4 3 C2.68 3 1.36 3 0 3 C0 2.01 0 1.02 0 0 Z " fill="#26282E" transform="translate(182,25)"/>
<path d="M0 0 C2.05078125 0.03255208 4.1015625 0.06510417 6.15234375 0.09765625 C5.67889849 5.14773903 3.17775373 9.13664261 0.15234375 13.09765625 C-0.83765625 13.75765625 -1.82765625 14.41765625 -2.84765625 15.09765625 C-2.87451037 12.78521833 -2.89398466 10.47269355 -2.91015625 8.16015625 C-2.92175781 6.87238281 -2.93335938 5.58460937 -2.9453125 4.2578125 C-2.81833933 0.14896085 -2.81833933 0.14896085 0 0 Z " fill="#ECEEF0" transform="translate(43.84765625,42.90234375)"/>
<path d="M0 0 C0 0.66 0 1.32 0 2 C-0.99 2 -1.98 2 -3 2 C-3 2.66 -3 3.32 -3 4 C-3.99 4.495 -3.99 4.495 -5 5 C-5.05796132 9.10410755 -5.09358313 13.20811016 -5.125 17.3125 C-5.14175781 18.47974609 -5.15851563 19.64699219 -5.17578125 20.84960938 C-5.18222656 21.96787109 -5.18867188 23.08613281 -5.1953125 24.23828125 C-5.20578613 25.26993408 -5.21625977 26.30158691 -5.22705078 27.36450195 C-5.19297515 30.23187592 -5.19297515 30.23187592 -3 33 C-4.65 32.67 -6.3 32.34 -8 32 C-8 21.77 -8 11.54 -8 1 C-3 -1 -3 -1 0 0 Z " fill="#D1D1D2" transform="translate(236,27)"/>
<path d="M0 0 C6.15234375 -0.09765625 6.15234375 -0.09765625 8 0 C9 1 9 1 9.09765625 3.94140625 C9.08605469 5.13636719 9.07445312 6.33132812 9.0625 7.5625 C9.05347656 8.76003906 9.04445313 9.95757812 9.03515625 11.19140625 C9.02355469 12.11824219 9.01195312 13.04507813 9 14 C5.37640811 12.56759722 4.06444274 10.97298034 2.25 7.5625 C1.82203125 6.78003906 1.3940625 5.99757813 0.953125 5.19140625 C0 3 0 3 0 0 Z " fill="#F2F2F3" transform="translate(53,43)"/>
<path d="M0 0 C0.99 0 1.98 0 3 0 C4.32 2.64 5.64 5.28 7 8 C6.01 8.495 6.01 8.495 5 9 C4.28752268 10.6476038 3.62599617 12.31763529 3 14 C1.28571429 17.85714286 1.28571429 17.85714286 -1 19 C-0.67 19.99 -0.34 20.98 0 22 C0.66 22 1.32 22 2 22 C3.2890625 23.75 3.2890625 23.75 4.625 26 C5.07101562 26.7425 5.51703125 27.485 5.9765625 28.25 C6.48316406 29.11625 6.48316406 29.11625 7 30 C2.91403748 28.47236536 1.20173821 25.88915809 -1.25 22.375 C-1.95640625 21.37210938 -2.6628125 20.36921875 -3.390625 19.3359375 C-4.18726563 18.17964844 -4.18726563 18.17964844 -5 17 C-3.824375 16.1028125 -3.824375 16.1028125 -2.625 15.1875 C0.14574323 13.08914751 0.14574323 13.08914751 2 10 C2.33706208 6.03952054 2.09429461 3.40322874 0 0 Z " fill="#D3D6D7" transform="translate(374,28)"/>
<path d="M0 0 C4.95 0 9.9 0 15 0 C18.375 6.75 18.375 6.75 18 11 C20.47266765 10.65555119 20.47266765 10.65555119 23 10 C23.33 9.34 23.66 8.68 24 8 C24.33 8.33 24.66 8.66 25 9 C26.34747084 9.23075082 27.70377565 9.41153063 29.0625 9.5625 C30.361875 9.706875 31.66125 9.85125 33 10 C32 12 32 12 30.421875 12.62109375 C27.03082655 13.15162875 23.67142682 13.10454022 20.25 13.0625 C19.55261719 13.05798828 18.85523438 13.05347656 18.13671875 13.04882812 C16.42444197 13.0371002 14.71220967 13.01916653 13 13 C13 12.01 13 11.02 13 10 C14.32 10 15.64 10 17 10 C15.515 5.545 15.515 5.545 14 1 C9.38 1.33 4.76 1.66 0 2 C0 1.34 0 0.68 0 0 Z " fill="#2C3037" transform="translate(320,49)"/>
<path d="M0 0 C2.64 0.33 5.28 0.66 8 1 C7.38125 1.28875 6.7625 1.5775 6.125 1.875 C3.86674235 2.93720042 3.86674235 2.93720042 2 5 C1.7430483 7.95786444 1.5792617 10.84951126 1.5 13.8125 C1.23561647 23.55581081 1.23561647 23.55581081 -1 28 C-1.33 28 -1.66 28 -2 28 C-2.25470125 24.39715934 -2.47435483 20.79301891 -2.6875 17.1875 C-2.76033203 16.16333984 -2.83316406 15.13917969 -2.90820312 14.08398438 C-2.96298828 13.10107422 -3.01777344 12.11816406 -3.07421875 11.10546875 C-3.13182373 10.19949951 -3.18942871 9.29353027 -3.2487793 8.36010742 C-2.94495637 5.47781471 -2.07703396 4.90069801 0 3 C0 2.01 0 1.02 0 0 Z " fill="#D6E0EA" transform="translate(38,38)"/>
<path d="M0 0 C0.66 0 1.32 0 2 0 C2.66 2.97 3.32 5.94 4 9 C4.99 9 5.98 9 7 9 C7 10.65 7 12.3 7 14 C6.34 14 5.68 14 5 14 C5 14.33 5 14.66 5 15 C3.02 15 1.04 15 -1 15 C-2.19287411 11.12315913 -3 8.08378077 -3 4 C-2.01 4 -1.02 4 0 4 C0.33 4.33 0.66 4.66 1 5 C0.67 3.35 0.34 1.7 0 0 Z " fill="#A7B2CC" transform="translate(339,45)"/>
<path d="M0 0 C1.27875 -0.061875 2.5575 -0.12375 3.875 -0.1875 C4.95394531 -0.23970703 4.95394531 -0.23970703 6.0546875 -0.29296875 C6.69664062 -0.19628906 7.33859375 -0.09960938 8 0 C8.66 0.99 9.32 1.98 10 3 C7.36 2.67 4.72 2.34 2 2 C2 11.24 2 20.48 2 30 C0 28 0 28 -0.22705078 25.20263672 C-0.21134033 23.45877686 -0.21134033 23.45877686 -0.1953125 21.6796875 C-0.18886719 20.42285156 -0.18242187 19.16601562 -0.17578125 17.87109375 C-0.15902344 16.55238281 -0.14226562 15.23367187 -0.125 13.875 C-0.11496983 12.53516279 -0.10584404 11.19531848 -0.09765625 9.85546875 C-0.07402075 6.57013427 -0.04107234 3.28515535 0 0 Z " fill="#B8B9BA" transform="translate(143,29)"/>
<path d="M0 0 C0.680625 0.845625 1.36125 1.69125 2.0625 2.5625 C4.83693444 5.40329361 4.83693444 5.40329361 8.6875 4.9375 C12.04787282 4.27734142 12.04787282 4.27734142 14 2 C13.42655063 4.86724686 13.1385485 5.8614515 11 8 C10.75456859 10.64787789 10.62650614 13.19903823 10.5859375 15.8515625 C10.56657135 16.62559418 10.5472052 17.39962585 10.5272522 18.19711304 C10.4674017 20.67296275 10.42104989 23.14885883 10.375 25.625 C10.33682518 27.30210377 10.29777375 28.97918784 10.2578125 30.65625 C10.16169591 34.77067353 10.07768561 38.88518886 10 43 C9.67 43 9.34 43 9 43 C9 31.45 9 19.9 9 8 C6.69 7.67 4.38 7.34 2 7 C2 6.34 2 5.68 2 5 C0.68 5.33 -0.64 5.66 -2 6 C-1.34 4.02 -0.68 2.04 0 0 Z " fill="#2B1C22" transform="translate(59,27)"/>
<path d="M0 0 C0.99 0.495 0.99 0.495 2 1 C4.03232634 1.08527628 6.06747006 1.10716135 8.1015625 1.09765625 C9.91914063 1.09282227 9.91914063 1.09282227 11.7734375 1.08789062 C13.04445312 1.07951172 14.31546875 1.07113281 15.625 1.0625 C17.543125 1.05573242 17.543125 1.05573242 19.5 1.04882812 C22.66671292 1.03701203 25.83333356 1.02053815 29 1 C28.67 2.32 28.34 3.64 28 5 C27.67 4.67 27.34 4.34 27 4 C19.21344868 3.0373769 11.75161007 2.79716395 4 4 C3.34 5.98 2.68 7.96 2 10 C1.34 10 0.68 10 0 10 C0 6.7 0 3.4 0 0 Z " fill="#6C707F" transform="translate(125,25)"/>
<path d="M0 0 C0.99 0 1.98 0 3 0 C2.8590651 2.43787385 2.71245458 4.87517853 2.5625 7.3125 C2.50352539 8.34793945 2.50352539 8.34793945 2.44335938 9.40429688 C2.25072585 12.47161535 1.97677283 15.06968152 1 18 C-0.32 17.67 -1.64 17.34 -3 17 C-3.55353075 5.47835991 -3.55353075 5.47835991 0 0 Z " fill="#B9C9E6" transform="translate(277,33)"/>
<path d="M0 0 C3.96 0 7.92 0 12 0 C12 8.25 12 16.5 12 25 C11.67 25 11.34 25 11 25 C10.67 21.7 10.34 18.4 10 15 C9.01 15.495 9.01 15.495 8 16 C8.33 14.35 8.66 12.7 9 11 C9.66 11 10.32 11 11 11 C11 7.7 11 4.4 11 1 C7.7 1 4.4 1 1 1 C1 8.92 1 16.84 1 25 C0.67 25 0.34 25 0 25 C0 16.75 0 8.5 0 0 Z " fill="#C8CBCF" transform="translate(21,46)"/>
<path d="M0 0 C4.75 0.75 4.75 0.75 7 3 C7.33923233 6.00462922 7.56914369 8.10254122 7 11 C4.75 13.375 4.75 13.375 2 15 C1.34 15.433125 0.68 15.86625 0 16.3125 C-2.62562573 17.21505885 -4.36515136 16.7319024 -7 16 C-7 15.67 -7 15.34 -7 15 C-5.88625 14.71125 -4.7725 14.4225 -3.625 14.125 C0.00291092 13.30758671 0.00291092 13.30758671 2 11 C2.31404687 6.76036719 2.32617985 3.63465602 0 0 Z " fill="#B9C4D9" transform="translate(368,28)"/>
<path d="M0 0 C4.95 0 9.9 0 15 0 C18.375 6.75 18.375 6.75 18 11 C20.47266765 10.65555119 20.47266765 10.65555119 23 10 C23.33 9.34 23.66 8.68 24 8 C25.32 8.66 26.64 9.32 28 10 C28 10.99 28 11.98 28 13 C23.05 13 18.1 13 13 13 C13 12.01 13 11.02 13 10 C14.32 10 15.64 10 17 10 C15.515 5.545 15.515 5.545 14 1 C9.38 1.33 4.76 1.66 0 2 C0 1.34 0 0.68 0 0 Z " fill="#2C2F36" transform="translate(96,49)"/>
<path d="M0 0 C4.95 0 9.9 0 15 0 C15.125 13.75 15.125 13.75 14 16 C14.62648437 15.91621094 15.25296875 15.83242188 15.8984375 15.74609375 C16.71570313 15.64425781 17.53296875 15.54242188 18.375 15.4375 C19.18710938 15.33308594 19.99921875 15.22867188 20.8359375 15.12109375 C23 15 23 15 25 16 C25 16.66 25 17.32 25 18 C19.72 18 14.44 18 9 18 C9 17.01 9 16.02 9 15 C10.32 15 11.64 15 13 15 C13.33 10.38 13.66 5.76 14 1 C9.38 1 4.76 1 0 1 C0 0.67 0 0.34 0 0 Z " fill="#303339" transform="translate(208,44)"/>
<path d="M0 0 C3.63 0 7.26 0 11 0 C11 1.65 11 3.3 11 5 C7.54337669 7.30441554 6.05142119 7.25860135 2 7 C1.34 6.67 0.68 6.34 0 6 C0 4.02 0 2.04 0 0 Z " fill="#D8D8DA" transform="translate(22,26)"/>
<path d="M0 0 C1.98 0 3.96 0 6 0 C5.84660156 0.65355469 5.69320312 1.30710937 5.53515625 1.98046875 C4.86620406 5.75492159 4.64592703 9.48905996 4.4375 13.3125 C4.39431641 14.05306641 4.35113281 14.79363281 4.30664062 15.55664062 C4.20129568 17.37091464 4.10021684 19.1854355 4 21 C3.01 21.33 2.02 21.66 1 22 C0.67 14.74 0.34 7.48 0 0 Z " fill="#B9CADF" transform="translate(162,27)"/>
<path d="M0 0 C3.63 0 7.26 0 11 0 C11 1.65 11 3.3 11 5 C8 7 8 7 4.375 6.6875 C1 6 1 6 0 5 C0 3.35 0 1.7 0 0 Z " fill="#DF807C" transform="translate(61,26)"/>
<path d="M0 0 C3.63 0 7.26 0 11 0 C10.625 2.9375 10.625 2.9375 10 6 C7.21136993 7.39431504 5.07921132 7.25660094 2 7 C0 4 0 4 0 0 Z " fill="#E7E8E8" transform="translate(48,26)"/>
<path d="M0 0 C3.63 0 7.26 0 11 0 C10 5 10 5 8 7 C5 7.25 5 7.25 2 7 C1.34 6.34 0.68 5.68 0 5 C0 3.35 0 1.7 0 0 Z " fill="#DA7B71" transform="translate(35,26)"/>
<path d="M0 0 C0.33 0 0.66 0 1 0 C1 5.61 1 11.22 1 17 C-6.26 17 -13.52 17 -21 17 C-21 16.67 -21 16.34 -21 16 C-14.73 16 -8.46 16 -2 16 C-3.32 14.246875 -4.64 12.49375 -6 10.6875 C-10 5.375 -10 5.375 -10 2 C-9.34 2 -8.68 2 -8 2 C-7.63648438 2.81404297 -7.63648438 2.81404297 -7.265625 3.64453125 C-6.93046875 4.35996094 -6.5953125 5.07539062 -6.25 5.8125 C-5.92515625 6.52019531 -5.6003125 7.22789063 -5.265625 7.95703125 C-3.88156907 10.46808664 -3.88156907 10.46808664 0 13 C0 8.71 0 4.42 0 0 Z " fill="#2A2D33" transform="translate(63,45)"/>
<path d="M0 0 C0.33 0 0.66 0 1 0 C1.33 10.23 1.66 20.46 2 31 C0.02 31 -1.96 31 -4 31 C-4 30.34 -4 29.68 -4 29 C-3.34 29 -2.68 29 -2 29 C-2.01047363 28.19256348 -2.02094727 27.38512695 -2.03173828 26.55322266 C-2.07319831 22.91051318 -2.09929438 19.26785325 -2.125 15.625 C-2.14175781 14.35398437 -2.15851563 13.08296875 -2.17578125 11.7734375 C-2.18222656 10.56171875 -2.18867188 9.35 -2.1953125 8.1015625 C-2.21102295 6.42054443 -2.21102295 6.42054443 -2.22705078 4.70556641 C-2 2 -2 2 0 0 Z " fill="#9EAAC0" transform="translate(226,29)"/>
<path d="M0 0 C0.33 0 0.66 0 1 0 C1.10792837 2.60527105 1.18724878 5.20608311 1.25 7.8125 C1.30027344 8.91948242 1.30027344 8.91948242 1.3515625 10.04882812 C1.44907608 15.43645354 1.44907608 15.43645354 -0.59375 18 C-3.77421725 19.32175262 -6.31616466 19.29051506 -9.75 19.1875 C-10.92046875 19.16042969 -12.0909375 19.13335937 -13.296875 19.10546875 C-14.18890625 19.07066406 -15.0809375 19.03585938 -16 19 C-16 18.34 -16 17.68 -16 17 C-11.0334501 14.03453574 -5.65692229 14.36892971 0 14 C0 9.38 0 4.76 0 0 Z " fill="#A4A6AA" transform="translate(305,45)"/>
<path d="M0 0 C0.99 0.66 1.98 1.32 3 2 C2.67 2.66 2.34 3.32 2 4 C0.68 4 -0.64 4 -2 4 C-2.33 7.96 -2.66 11.92 -3 16 C0.96 16 4.92 16 9 16 C9 12.04 9 8.08 9 4 C9.33 4 9.66 4 10 4 C10 8.29 10 12.58 10 17 C5.05 17 0.1 17 -5 17 C-5 12.38 -5 7.76 -5 3 C-3.35 3 -1.7 3 0 3 C0 2.01 0 1.02 0 0 Z " fill="#C0C2C5" transform="translate(212,25)"/>
<path d="M0 0 C3.3 0 6.6 0 10 0 C10 1.65 10 3.3 10 5 C8 7 8 7 5 7.25 C2 7 2 7 0 5 C0 3.35 0 1.7 0 0 Z " fill="#DD8380" transform="translate(9,26)"/>
<path d="M0 0 C0.66 0 1.32 0 2 0 C2.84442881 1.89091736 3.67511587 3.78797515 4.5 5.6875 C4.9640625 6.74324219 5.428125 7.79898438 5.90625 8.88671875 C6.94950801 11.85627816 7.23065301 13.89195063 7 17 C4 16 4 16 2.83203125 13.93359375 C2.49558594 13.10988281 2.15914063 12.28617188 1.8125 11.4375 C1.29623047 10.19806641 1.29623047 10.19806641 0.76953125 8.93359375 C0.51558594 8.29550781 0.26164062 7.65742187 0 7 C-0.66 7 -1.32 7 -2 7 C-1.125 2.25 -1.125 2.25 0 0 Z " fill="#B5C4DC" transform="translate(328,27)"/>
<path d="M0 0 C1.65 0 3.3 0 5 0 C4.67 2.97 4.34 5.94 4 9 C1.03 9 -1.94 9 -5 9 C-5 8.34 -5 7.68 -5 7 C-4.34 7 -3.68 7 -3 7 C-2.67 5.68 -2.34 4.36 -2 3 C-1.34 3 -0.68 3 0 3 C0 2.01 0 1.02 0 0 Z " fill="#EE776B" transform="translate(16,15)"/>
<path d="M0 0 C0.33 0.99 0.66 1.98 1 3 C-1.46177547 6.78734687 -3.96965756 9.01329165 -8 11 C-11.2265625 11.36328125 -11.2265625 11.36328125 -14.625 11.3125 C-16.31496094 11.30669922 -16.31496094 11.30669922 -18.0390625 11.30078125 C-21 11 -21 11 -24 9 C-23.67 8.34 -23.34 7.68 -23 7 C-22.34 7.33 -21.68 7.66 -21 8 C-15.39011251 8.51228015 -10.55235496 8.76256033 -5.4375 6.25 C-3.29901837 4.27601696 -1.57087872 2.44358912 0 0 Z " fill="#CACBD0" transform="translate(267,53)"/>
<path d="M0 0 C1.43229167 1.26953125 2.86458333 2.5390625 4.296875 3.80859375 C8.93917954 7.05607743 15.60249319 6.73212935 21 6 C23.58059339 4.59419103 24.97536894 3.18879034 27 1 C27.66 1.33 28.32 1.66 29 2 C25.02073327 6.32034673 22.07503082 8.79250804 16.10546875 9.1953125 C14.66107422 9.16050781 14.66107422 9.16050781 13.1875 9.125 C11.72376953 9.09792969 11.72376953 9.09792969 10.23046875 9.0703125 C9.49441406 9.04710938 8.75835937 9.02390625 8 9 C8 8.34 8 7.68 8 7 C7.236875 6.896875 6.47375 6.79375 5.6875 6.6875 C2.80192188 5.94932885 1.73820183 5.37859197 0 3 C0 2.01 0 1.02 0 0 Z " fill="#E4E6E9" transform="translate(163,56)"/>
<path d="M0 0 C0.33 0 0.66 0 1 0 C1.33 8.91 1.66 17.82 2 27 C1.34 27.33 0.68 27.66 0 28 C-1.03254884 24.90235347 -1.12908904 22.73851213 -1.1328125 19.4921875 C-1.13410156 18.42355469 -1.13539063 17.35492188 -1.13671875 16.25390625 C-1.13285156 15.13886719 -1.12898437 14.02382813 -1.125 12.875 C-1.12886719 11.75222656 -1.13273438 10.62945312 -1.13671875 9.47265625 C-1.13542969 8.40660156 -1.13414062 7.34054688 -1.1328125 6.2421875 C-1.13168457 5.2610498 -1.13055664 4.27991211 -1.12939453 3.26904297 C-1 1 -1 1 0 0 Z " fill="#C7C8CC" transform="translate(169,28)"/>
<path d="M0 0 C1.98 0.66 3.96 1.32 6 2 C6.12375 2.969375 6.2475 3.93875 6.375 4.9375 C6.58125 5.948125 6.7875 6.95875 7 8 C7.66 8.33 8.32 8.66 9 9 C3.62694301 9.44041451 3.62694301 9.44041451 1 9 C-1 6.5 -1 6.5 -2 4 C-1.01 4 -0.02 4 1 4 C0.67 2.68 0.34 1.36 0 0 Z " fill="#C4D5E5" transform="translate(20,33)"/>
<path d="M0 0 C2.875 -0.125 2.875 -0.125 6 0 C6.66 0.66 7.32 1.32 8 2 C7.01 2.495 7.01 2.495 6 3 C5.690625 3.99 5.38125 4.98 5.0625 6 C4.5365625 7.485 4.5365625 7.485 4 9 C0.45325997 10.18224668 -1.97522995 9.89329634 -5.6875 9.5625 C-6.86699219 9.46066406 -8.04648437 9.35882813 -9.26171875 9.25390625 C-10.16535156 9.17011719 -11.06898437 9.08632813 -12 9 C-12 8.67 -12 8.34 -12 8 C-6.06 7.505 -6.06 7.505 0 7 C0 5.68 0 4.36 0 3 C0.66 2.67 1.32 2.34 2 2 C1.34 1.34 0.68 0.68 0 0 Z " fill="#A9B7C7" transform="translate(33,36)"/>
<path d="M0 0 C5.37305699 -0.35233161 5.37305699 -0.35233161 8 0 C10 2 10 2 11 4 C10.67 4.66 10.34 5.32 10 6 C9.67 5.67 9.34 5.34 9 5 C8.67 5.99 8.34 6.98 8 8 C8.66 8 9.32 8 10 8 C10 8.66 10 9.32 10 10 C8.68 10 7.36 10 6 10 C3.82542733 7.12645755 3 5.63563409 3 2 C2.01 1.34 1.02 0.68 0 0 Z " fill="#DC6862" transform="translate(57,12)"/>
<path d="M0 0 C3.63 0 7.26 0 11 0 C15.57142857 11.57142857 15.57142857 11.57142857 15 18 C14.4121875 17.0409375 14.4121875 17.0409375 13.8125 16.0625 C11.61527704 13.56221181 10.24208567 13.35049575 7 13 C7 12.67 7 12.34 7 12 C8.65 12 10.3 12 12 12 C11.01 8.7 10.02 5.4 9 2 C6.36 1.67 3.72 1.34 1 1 C0.67 1.99 0.34 2.98 0 4 C0 2.68 0 1.36 0 0 Z " fill="#6C5754" transform="translate(46,12)"/>
<path d="M0 0 C3.14958831 3.42346555 3.56179109 6.44262737 4 11 C1.69 11 -0.62 11 -3 11 C-2.44894091 7.0507432 -1.61064629 3.65079826 0 0 Z " fill="#D0D1D4" transform="translate(327,35)"/>
<path d="M0 0 C0.66 0 1.32 0 2 0 C2.99 2.97 3.98 5.94 5 9 C2.36 9 -0.28 9 -3 9 C-2.5020163 5.26512223 -2.12508244 3.18762365 0 0 Z " fill="#F3F2F4" transform="translate(103,37)"/>
<path d="M0 0 C0.66 0 1.32 0 2 0 C3.32 3.63 4.64 7.26 6 11 C5.01 11.99 4.02 12.98 3 14 C2.01 11.69 1.02 9.38 0 7 C-0.66 7 -1.32 7 -2 7 C-1.125 2.25 -1.125 2.25 0 0 Z " fill="#B2BFD5" transform="translate(104,27)"/>
<path d="M0 0 C5.94 0 11.88 0 18 0 C18 0.33 18 0.66 18 1 C13.05 1.33 8.1 1.66 3 2 C2.67 6.62 2.34 11.24 2 16 C1.34 15.67 0.68 15.34 0 15 C0 10.05 0 5.1 0 0 Z " fill="#555B67" transform="translate(205,43)"/>
<path d="M0 0 C1.65 1.65 3.3 3.3 5 5 C4.67 5.99 4.34 6.98 4 8 C3.67 7.34 3.34 6.68 3 6 C1.68 8.31 0.36 10.62 -1 13 C-1.66 12.67 -2.32 12.34 -3 12 C-3.66 12.66 -4.32 13.32 -5 14 C-4.34580901 8.93001981 -2.1453591 4.58009223 0 0 Z " fill="#414651" transform="translate(325,31)"/>
<path d="M0 0 C9.57 0 19.14 0 29 0 C29.33 3.3 29.66 6.6 30 10 C29.01 9.67 28.02 9.34 27 9 C27.33 6.36 27.66 3.72 28 1 C18.76 1.33 9.52 1.66 0 2 C0 1.34 0 0.68 0 0 Z " fill="#41454A" transform="translate(126,25)"/>
<path d="M0 0 C0.33 0 0.66 0 1 0 C1.66 8.91 2.32 17.82 3 27 C1.35 27 -0.3 27 -2 27 C-2 26.34 -2 25.68 -2 25 C-1.34 25 -0.68 25 0 25 C0 16.75 0 8.5 0 0 Z " fill="#B9CAE1" transform="translate(356,33)"/>
<path d="M0 0 C0.7425 0.763125 1.485 1.52625 2.25 2.3125 C5.41841139 5.40890204 7.79038466 7.59679489 12 9 C12 9.99 12 10.98 12 12 C8.7 12 5.4 12 2 12 C2 11.01 2 10.02 2 9 C3.32 9 4.64 9 6 9 C5.566875 8.51789062 5.13375 8.03578125 4.6875 7.5390625 C4.130625 6.90742187 3.57375 6.27578125 3 5.625 C2.443125 4.99851562 1.88625 4.37203125 1.3125 3.7265625 C0 2 0 2 0 0 Z " fill="#383B43" transform="translate(372,50)"/>
<path d="M0 0 C2.31 0 4.62 0 7 0 C8.71466036 3.42932071 8.05404056 7.21716065 8 11 C4.7 11 1.4 11 -2 11 C-1.67 9.02 -1.34 7.04 -1 5 C-0.67 5 -0.34 5 0 5 C0 6.65 0 8.3 0 10 C1.98 9.67 3.96 9.34 6 9 C6 6.36 6 3.72 6 1 C4.02 1 2.04 1 0 1 C0 0.67 0 0.34 0 0 Z " fill="#E58381" transform="translate(37,13)"/>
<path d="M0 0 C0.66 0.66 1.32 1.32 2 2 C0.7625 1.9175 -0.475 1.835 -1.75 1.75 C-4.95240277 1.74434204 -5.73345456 1.79658374 -8.375 3.8125 C-11.64154126 8.20976709 -12.32373575 10.71453273 -12.625 16.1875 C-12.69976562 17.45980469 -12.77453125 18.73210938 -12.8515625 20.04296875 C-12.90054688 21.01878906 -12.94953125 21.99460937 -13 23 C-13.33 23 -13.66 23 -14 23 C-14.0816082 20.62429457 -14.14077222 18.25144159 -14.1875 15.875 C-14.22520508 14.87726562 -14.22520508 14.87726562 -14.26367188 13.859375 C-14.3332236 9.12985758 -13.53781286 5.98714654 -11 2 C-6.93150591 -0.71232939 -4.83523216 -0.30699887 0 0 Z " fill="#C0C3C8" transform="translate(256,28)"/>
<path d="M0 0 C0.33 0.99 0.66 1.98 1 3 C0.34 4.32 -0.32 5.64 -1 7 C3.62 7 8.24 7 13 7 C13 7.33 13 7.66 13 8 C8.05 8 3.1 8 -2 8 C-2.66 9.98 -3.32 11.96 -4 14 C-4.33 14 -4.66 14 -5 14 C-5.17942163 10.05272412 -5.09350689 7.4019487 -3 4 C-2.34 4 -1.68 4 -1 4 C-0.67 2.68 -0.34 1.36 0 0 Z " fill="#848892" transform="translate(98,41)"/>
<path d="M0 0 C1.8125 1.5 1.8125 1.5 3 3 C2.01 4.485 2.01 4.485 1 6 C0.67 5.67 0.34 5.34 0 5 C-1.155 4.835 -2.31 4.67 -3.5 4.5 C-7 4 -7 4 -8 3 C-9.99958364 2.95919217 -12.00045254 2.95745644 -14 3 C-14 2.34 -14 1.68 -14 1 C-2.95454545 -0.34759358 -2.95454545 -0.34759358 0 0 Z " fill="#616576" transform="translate(367,25)"/>
<path d="M0 0 C1.21816406 0.03480469 1.21816406 0.03480469 2.4609375 0.0703125 C3.68683594 0.09738281 3.68683594 0.09738281 4.9375 0.125 C5.87722656 0.15980469 5.87722656 0.15980469 6.8359375 0.1953125 C6.8359375 0.5253125 6.8359375 0.8553125 6.8359375 1.1953125 C5.134375 1.411875 5.134375 1.411875 3.3984375 1.6328125 C0.02816549 1.80702728 0.02816549 1.80702728 -1.1640625 3.1953125 C-1.44806581 6.29680896 -1.6128096 9.39823896 -1.78515625 12.5078125 C-1.91019531 13.3946875 -2.03523438 14.2815625 -2.1640625 15.1953125 C-3.1540625 15.6903125 -3.1540625 15.6903125 -4.1640625 16.1953125 C-4.21790771 13.90389964 -4.25678337 11.61213062 -4.2890625 9.3203125 C-4.31226563 8.04414062 -4.33546875 6.76796875 -4.359375 5.453125 C-4.14141297 1.81751834 -3.82463601 0.34518376 0 0 Z " fill="#2B353D" transform="translate(43.1640625,40.8046875)"/>
<path d="M0 0 C0.66 0 1.32 0 2 0 C2 0.66 2 1.32 2 2 C3.32 1.67 4.64 1.34 6 1 C6 2.32 6 3.64 6 5 C1.05 5.33 -3.9 5.66 -9 6 C-9 5.34 -9 4.68 -9 4 C-8.43410156 3.87882812 -7.86820313 3.75765625 -7.28515625 3.6328125 C-6.18494141 3.38144531 -6.18494141 3.38144531 -5.0625 3.125 C-4.33160156 2.96257813 -3.60070312 2.80015625 -2.84765625 2.6328125 C-0.79299706 2.17038477 -0.79299706 2.17038477 0 0 Z " fill="#D4E0EF" transform="translate(28,39)"/>
<path d="M0 0 C4.2008967 1.81894496 5.2224636 3.76777048 7 8 C7.6875 10.375 7.6875 10.375 8 12 C7.67 12 7.34 12 7 12 C6.96261719 12.62648438 6.92523438 13.25296875 6.88671875 13.8984375 C6.82097656 14.71570312 6.75523437 15.53296875 6.6875 16.375 C6.62949219 17.18710937 6.57148438 17.99921875 6.51171875 18.8359375 C6 21 6 21 3 23 C3.165 22.38125 3.33 21.7625 3.5 21.125 C4.82215079 12.86155755 4.29610934 7.24968451 0 0 Z " fill="#CDD0D1" transform="translate(265,30)"/>
<path d="M0 0 C0.5625 1.9375 0.5625 1.9375 1 4 C0.67 4.33 0.34 4.66 0 5 C-0.07313567 7.53049402 -0.09247527 10.03304837 -0.0625 12.5625 C-0.05798828 13.27341797 -0.05347656 13.98433594 -0.04882812 14.71679688 C-0.03700864 16.47790013 -0.01907263 18.23896036 0 20 C-2.58548628 17.41451372 -2.97641847 15.70461615 -3.09765625 12.08203125 C-3.08605469 11.00308594 -3.07445312 9.92414062 -3.0625 8.8125 C-3.05347656 7.72582031 -3.04445313 6.63914062 -3.03515625 5.51953125 C-3.02355469 4.68808594 -3.01195312 3.85664062 -3 3 C-2.01 2.67 -1.02 2.34 0 2 C0 1.34 0 0.68 0 0 Z " fill="#D2D4D4" transform="translate(283,34)"/>
<path d="M0 0 C4.0483548 0.50671107 5.95199296 1.69300416 8.96484375 4.37109375 C5.96484375 4.37109375 5.96484375 4.37109375 4.23046875 3.875 C1.03910031 3.16519564 -2.02098135 3.27836991 -5.28515625 3.30859375 C-7.18007812 3.32212891 -7.18007812 3.32212891 -9.11328125 3.3359375 C-10.0775 3.34753906 -11.04171875 3.35914063 -12.03515625 3.37109375 C-8.78083091 -0.84499096 -4.94985455 -0.101997 0 0 Z " fill="#4E4F58" transform="translate(255.03515625,24.62890625)"/>
<path d="M0 0 C-1.3125 2 -1.3125 2 -4 4 C-7.68855385 4.36089448 -11.3051649 4.22933459 -15 4 C-15 3.01 -15 2.02 -15 1 C-12.77888677 -0.11055662 -11.0853776 -0.33890958 -8.625 -0.625 C-7.85414063 -0.72039063 -7.08328125 -0.81578125 -6.2890625 -0.9140625 C-3.97179747 -1.0010588 -2.20658162 -0.67507292 0 0 Z " fill="#3B3E46" transform="translate(186,58)"/>
<path d="M0 0 C2.64779693 0 4.51587793 0.17195931 7 1 C7.33 1.66 7.66 2.32 8 3 C10.12576782 3.46651207 10.12576782 3.46651207 12.5625 3.625 C13.38878906 3.69976562 14.21507812 3.77453125 15.06640625 3.8515625 C15.70449219 3.90054688 16.34257812 3.94953125 17 4 C17 4.33 17 4.66 17 5 C6.07998433 6.60229895 6.07998433 6.60229895 1.75 4.1875 C0 2 0 2 0 0 Z " fill="#7A7F8B" transform="translate(164,56)"/>
<path d="M0 0 C3 1 3 1 5 3 C5 3.99 5 4.98 5 6 C2.03 6 -0.94 6 -4 6 C-3 2 -3 2 0 0 Z " fill="#FAF9FA" transform="translate(27,18)"/>
<path d="M0 0 C0.33 1.32 0.66 2.64 1 4 C2.65 4 4.3 4 6 4 C6 4.99 6 5.98 6 7 C2.04 7 -1.92 7 -6 7 C-5 5 -5 5 -2 4 C-0.79117904 1.99983534 -0.79117904 1.99983534 0 0 Z " fill="#8C8E97" transform="translate(316,55)"/>
<path d="M0 0 C3.3 0.66 6.6 1.32 10 2 C9 4 9 4 7.296875 4.62109375 C4.57835155 5.06955765 2.00442923 5.09529082 -0.75 5.0625 C-1.73484375 5.05347656 -2.7196875 5.04445313 -3.734375 5.03515625 C-4.48203125 5.02355469 -5.2296875 5.01195312 -6 5 C-5.67 4.34 -5.34 3.68 -5 3 C-2.4375 2.375 -2.4375 2.375 0 2 C0 1.34 0 0.68 0 0 Z " fill="#404248" transform="translate(343,57)"/>
<path d="M0 0 C0 0.99 0 1.98 0 3 C-0.99 3.33 -1.98 3.66 -3 4 C-3.33 8.62 -3.66 13.24 -4 18 C-4.33 18 -4.66 18 -5 18 C-5 13.05 -5 8.1 -5 3 C-7.97 2.505 -7.97 2.505 -11 2 C-11 1.67 -11 1.34 -11 1 C-7.27569643 0.30710631 -3.78916254 -0.11144596 0 0 Z " fill="#32343B" transform="translate(309,41)"/>
<path d="M0 0 C0.33 0 0.66 0 1 0 C1 3.63 1 7.26 1 11 C0.34 11 -0.32 11 -1 11 C-1.71614583 9.27473958 -2.43229167 7.54947917 -3.1484375 5.82421875 C-4.06806692 3.73466068 -4.06806692 3.73466068 -6 1 C-4.7934375 1.0309375 -4.7934375 1.0309375 -3.5625 1.0625 C-1.06645115 1.29633621 -1.06645115 1.29633621 0 0 Z " fill="#6E737B" transform="translate(304,26)"/>
<path d="M0 0 C1 3 1 3 -0.1796875 5.48828125 C-1.01886719 6.88626953 -1.01886719 6.88626953 -1.875 8.3125 C-4.24831547 12.26986557 -5.47008247 15.40058755 -6 20 C-6.33 20 -6.66 20 -7 20 C-8.10136014 11.8184675 -4.38182727 6.70687847 0 0 Z " fill="#5A3633" transform="translate(14,11)"/>
<path d="M0 0 C1.37478516 0.01740234 1.37478516 0.01740234 2.77734375 0.03515625 C3.69644531 0.04417969 4.61554687 0.05320312 5.5625 0.0625 C6.27277344 0.07410156 6.98304687 0.08570312 7.71484375 0.09765625 C7.71484375 0.75765625 7.71484375 1.41765625 7.71484375 2.09765625 C4.41484375 2.09765625 1.11484375 2.09765625 -2.28515625 2.09765625 C-1.62515625 4.73765625 -0.96515625 7.37765625 -0.28515625 10.09765625 C-1.60515625 9.43765625 -2.92515625 8.77765625 -4.28515625 8.09765625 C-3.27234375 0.13984375 -3.27234375 0.13984375 0 0 Z " fill="#7A3A3C" transform="translate(11.28515625,23.90234375)"/>
<path d="M0 0 C0.66 0.99 1.32 1.98 2 3 C0.06658053 4.93341947 -3.37479121 4.17449133 -5.9375 4.1875 C-7.20464844 4.20167969 -8.47179687 4.21585937 -9.77734375 4.23046875 C-13 4 -13 4 -15 2 C-10.05 2 -5.1 2 0 2 C0 1.34 0 0.68 0 0 Z " fill="#DADBDB" transform="translate(148,60)"/>
<path d="M0 0 C3.63 0 7.26 0 11 0 C11 1.65 11 3.3 11 5 C10.01 4.67 9.02 4.34 8 4 C8 3.34 8 2.68 8 2 C3.52116304 2.44703986 3.52116304 2.44703986 0 5 C0 3.35 0 1.7 0 0 Z " fill="#D17C74" transform="translate(61,26)"/>
<path d="M0 0 C3.375 -0.1875 3.375 -0.1875 7 0 C7.66 0.99 8.32 1.98 9 3 C6.69 2.67 4.38 2.34 2 2 C1.67 5.63 1.34 9.26 1 13 C0.67 13 0.34 13 0 13 C0 8.71 0 4.42 0 0 Z " fill="#D1D1D3" transform="translate(360,29)"/>
<path d="M0 0 C1.98 0 3.96 0 6 0 C5.67 1.65 5.34 3.3 5 5 C3.02 5 1.04 5 -1 5 C-0.67 3.35 -0.34 1.7 0 0 Z " fill="#F5F9F8" transform="translate(26,27)"/>
<path d="M0 0 C0.4125 0.39832031 0.825 0.79664063 1.25 1.20703125 C5.60271464 5.2002583 9.37029996 7.22219999 15 9 C15 9.33 15 9.66 15 10 C9.03935748 10.74508031 6.25520577 9.27336145 1.50390625 5.703125 C0 4 0 4 0 0 Z " fill="#DADEE1" transform="translate(274,53)"/>
<path d="M0 0 C1.32 0.33 2.64 0.66 4 1 C4.99 4.96 5.98 8.92 7 13 C2.5 8.5 2.5 8.5 1.25 4.25 C1.00765625 3.45078125 0.7653125 2.6515625 0.515625 1.828125 C0.34546875 1.22484375 0.1753125 0.6215625 0 0 Z " fill="#D7DADB" transform="translate(115,46)"/>
<path d="M0 0 C-0.33 0.99 -0.66 1.98 -1 3 C-2.32 3 -3.64 3 -5 3 C-5 3.66 -5 4.32 -5 5 C-8.3 4.34 -11.6 3.68 -15 3 C-15 2.34 -15 1.68 -15 1 C-13.84371094 1.01740234 -13.84371094 1.01740234 -12.6640625 1.03515625 C-11.15972656 1.04869141 -11.15972656 1.04869141 -9.625 1.0625 C-8.12839844 1.07990234 -8.12839844 1.07990234 -6.6015625 1.09765625 C-4.04433149 1.00166409 -2.49131904 0 0 0 Z " fill="#D3DBE5" transform="translate(48,33)"/>
<path d="M0 0 C0.66 0.33 1.32 0.66 2 1 C1.21625 1.9075 0.4325 2.815 -0.375 3.75 C-2.30052496 6.05190236 -3.82205741 8.21577207 -5 11 C-5 10.34 -5 9.68 -5 9 C-5.99 9.33 -6.98 9.66 -8 10 C-6.5682479 4.98886765 -4.01554307 3.05530451 0 0 Z " fill="#B6C0D1" transform="translate(245,27)"/>
<path d="M0 0 C2.93200474 2.85276137 5.64315404 5.65079784 8 9 C5.6875 9.25 5.6875 9.25 3 9 C0.59688549 6.76261752 0.03658575 5.53659096 -0.1875 2.25 C-0.125625 1.5075 -0.06375 0.765 0 0 Z " fill="#BCC8E2" transform="translate(371,51)"/>
<path d="M0 0 C1.32 0.33 2.64 0.66 4 1 C2.5682479 6.01113235 0.01554307 7.94469549 -4 11 C-4.66 10.67 -5.32 10.34 -6 10 C-5.38125 9.46375 -4.7625 8.9275 -4.125 8.375 C-1.7217098 5.68896977 -0.93977847 3.44585438 0 0 Z " fill="#B8C1D2" transform="translate(263,49)"/>
<path d="M0 0 C2.31 0 4.62 0 7 0 C7.33 0.99 7.66 1.98 8 3 C7.34 3 6.68 3 6 3 C5.67 4.65 5.34 6.3 5 8 C2 4.25 2 4.25 2 2 C1.34 2 0.68 2 0 2 C0 1.34 0 0.68 0 0 Z " fill="#F6F8F9" transform="translate(54,43)"/>
<path d="M0 0 C0.94875 0.04125 1.8975 0.0825 2.875 0.125 C2.625 2 2.625 2 1.875 4.125 C-0.1875 5.375 -0.1875 5.375 -2.125 6.125 C-3.115 5.465 -4.105 4.805 -5.125 4.125 C-5.125 0.41389311 -3.38352144 0.13534086 0 0 Z " fill="#E26C66" transform="translate(15.125,25.875)"/>
<path d="M0 0 C4 1 4 1 6.25 4.0625 C7.11625 5.5165625 7.11625 5.5165625 8 7 C6.68 6.34 5.36 5.68 4 5 C4 4.34 4 3.68 4 3 C3.01 3 2.02 3 1 3 C1 6.3 1 9.6 1 13 C0.67 13 0.34 13 0 13 C0 8.71 0 4.42 0 0 Z " fill="#D1D2D6" transform="translate(360,46)"/>
<path d="M0 0 C4.62 0 9.24 0 14 0 C14 0.33 14 0.66 14 1 C11.03 1 8.06 1 5 1 C5.33 2.98 5.66 4.96 6 7 C5.34 6.01 4.68 5.02 4 4 C1.94074861 3.27617533 1.94074861 3.27617533 0 3 C0 2.01 0 1.02 0 0 Z " fill="#4B4F54" transform="translate(348,25)"/>
<path d="M0 0 C0.33 0.99 0.66 1.98 1 3 C-2.96 3 -6.92 3 -11 3 C-10.67 2.34 -10.34 1.68 -10 1 C-6.6322481 0.06451336 -3.4815554 -0.09947301 0 0 Z " fill="#494B53" transform="translate(364,59)"/>
<path d="M0 0 C2.475 0.99 2.475 0.99 5 2 C5 2.99 5 3.98 5 5 C1.37 5 -2.26 5 -6 5 C-5.67 4.34 -5.34 3.68 -5 3 C-2.4375 2.375 -2.4375 2.375 0 2 C0 1.34 0 0.68 0 0 Z " fill="#3D4147" transform="translate(119,57)"/>
<path d="M0 0 C0.33 1.32 0.66 2.64 1 4 C-0.32 4.33 -1.64 4.66 -3 5 C-3 9.62 -3 14.24 -3 19 C-3.33 19 -3.66 19 -4 19 C-4 13.72 -4 8.44 -4 3 C-3.01 3 -2.02 3 -1 3 C-0.67 2.01 -0.34 1.02 0 0 Z " fill="#DADADA" transform="translate(310,41)"/>
<path d="M0 0 C1.65 0 3.3 0 5 0 C4.67 1.65 4.34 3.3 4 5 C2.02 5.66 0.04 6.32 -2 7 C-1.34 4.69 -0.68 2.38 0 0 Z " fill="#EEE7E8" transform="translate(25,14)"/>
<path d="M0 0 C0.66 0 1.32 0 2 0 C2.66 2.97 3.32 5.94 4 9 C4.99 9 5.98 9 7 9 C7 10.65 7 12.3 7 14 C2.24387473 10.39190497 1.39195405 5.52563577 0 0 Z " fill="#D2D6D7" transform="translate(339,45)"/>
<path d="M0 0 C1.65 0.33 3.3 0.66 5 1 C5 1.66 5 2.32 5 3 C4.01 3 3.02 3 2 3 C2 4.98 2 6.96 2 9 C0.35 9 -1.3 9 -3 9 C-2.67 8.34 -2.34 7.68 -2 7 C-1.34 7.33 -0.68 7.66 0 8 C0 5.36 0 2.72 0 0 Z " fill="#DFE0E2" transform="translate(156,27)"/>
<path d="M0 0 C3.96 0 7.92 0 12 0 C11.67 1.32 11.34 2.64 11 4 C10.67 3.67 10.34 3.34 10 3 C8.31816052 2.76712992 6.6287584 2.58735834 4.9375 2.4375 C3.55884766 2.31181641 3.55884766 2.31181641 2.15234375 2.18359375 C1.08693359 2.09271484 1.08693359 2.09271484 0 2 C0 1.34 0 0.68 0 0 Z " fill="#8A909C" transform="translate(142,26)"/>
<path d="M0 0 C0.33 0 0.66 0 1 0 C1.99 3.96 2.98 7.92 4 12 C2.02 12.33 0.04 12.66 -2 13 C-1.34 12.67 -0.68 12.34 0 12 C0 8.04 0 4.08 0 0 Z " fill="#B4BFD3" transform="translate(300,47)"/>
<path d="M0 0 C0.99 0 1.98 0 3 0 C3.66 1.98 4.32 3.96 5 6 C5.66 6 6.32 6 7 6 C7 6.99 7 7.98 7 9 C5.109375 8.75390625 5.109375 8.75390625 3 8 C1.953125 6.15234375 1.953125 6.15234375 1.25 3.9375 C1.00765625 3.20402344 0.7653125 2.47054687 0.515625 1.71484375 C0.34546875 1.14894531 0.1753125 0.58304688 0 0 Z " fill="#A6B0CB" transform="translate(112,49)"/>
<path d="M0 0 C0.66 0.33 1.32 0.66 2 1 C1.01 3.64 0.02 6.28 -1 9 C-1.33 7.68 -1.66 6.36 -2 5 C-2.99 4.67 -3.98 4.34 -5 4 C-3.35 2.68 -1.7 1.36 0 0 Z " fill="#979EA8" transform="translate(284,27)"/>
<path d="M0 0 C0.33 0.99 0.66 1.98 1 3 C-0.5625 5.625 -0.5625 5.625 -3 8 C-6.25 8.8125 -6.25 8.8125 -9 9 C-8.2575 8.443125 -7.515 7.88625 -6.75 7.3125 C-4.08292005 5.06972822 -2.08443768 2.77925025 0 0 Z " fill="#BDC1C4" transform="translate(267,53)"/>
<path d="M0 0 C2.64 0 5.28 0 8 0 C5.63707344 2.52588702 4.33537489 3.88820837 1 5 C0.67 3.35 0.34 1.7 0 0 Z " fill="#F4F6F0" transform="translate(48,27)"/>
<path d="M0 0 C4.83256305 0.41421969 6.82679218 2.46413986 10 6 C5.16743695 5.58578031 3.17320782 3.53586014 0 0 Z " fill="#BDC7D9" transform="translate(277,54)"/>
<path d="M0 0 C0.99 0 1.98 0 3 0 C4.32 2.64 5.64 5.28 7 8 C6.01 8.495 6.01 8.495 5 9 C4.67 9.66 4.34 10.32 4 11 C3.79503906 10.37351562 3.59007812 9.74703125 3.37890625 9.1015625 C3.10949219 8.28429688 2.84007812 7.46703125 2.5625 6.625 C2.16224609 5.40683594 2.16224609 5.40683594 1.75390625 4.1640625 C1.04820271 1.98968201 1.04820271 1.98968201 0 0 Z " fill="#E8E7E7" transform="translate(374,28)"/>
<path d="M0 0 C2 2 2 2 2.125 5.625 C2.08375 6.73875 2.0425 7.8525 2 9 C1.608125 8.360625 1.21625 7.72125 0.8125 7.0625 C-1.38472296 4.56221181 -2.75791433 4.35049575 -6 4 C-6 3.67 -6 3.34 -6 3 C-4.35 3 -2.7 3 -1 3 C-0.67 2.01 -0.34 1.02 0 0 Z " fill="#66434B" transform="translate(59,21)"/>
<path d="M0 0 C0.99 0 1.98 0 3 0 C3.66 0.66 4.32 1.32 5 2 C4.01 2.33 3.02 2.66 2 3 C2 3.99 2 4.98 2 6 C1.01 6 0.02 6 -1 6 C-1.042721 4.33388095 -1.04063832 2.66617115 -1 1 C-0.67 0.67 -0.34 0.34 0 0 Z " fill="#3F454D" transform="translate(40,56)"/>
<path d="M0 0 C0.66 0 1.32 0 2 0 C2.33 0.99 2.66 1.98 3 3 C1.68 3.33 0.36 3.66 -1 4 C-1 5.65 -1 7.3 -1 9 C-1.66 9 -2.32 9 -3 9 C-2.5020163 5.26512223 -2.12508244 3.18762365 0 0 Z " fill="#C8CACC" transform="translate(103,37)"/>
<path d="M0 0 C0.33 0.66 0.66 1.32 1 2 C3.02463255 2.65213292 3.02463255 2.65213292 5 3 C5 4.65 5 6.3 5 8 C4.01 8.495 4.01 8.495 3 9 C0 3.375 0 3.375 0 0 Z " fill="#DFE0E0" transform="translate(53,43)"/>
<path d="M0 0 C0.99 0 1.98 0 3 0 C2.67 2.64 2.34 5.28 2 8 C1.67 7.01 1.34 6.02 1 5 C0.34 5 -0.32 5 -1 5 C-0.67 3.35 -0.34 1.7 0 0 Z " fill="#B0BCD6" transform="translate(277,33)"/>
<path d="M0 0 C0.33 0 0.66 0 1 0 C1 2.31 1 4.62 1 7 C-1.31 6.67 -3.62 6.34 -6 6 C-5.67 5.01 -5.34 4.02 -5 3 C-3.02 3.495 -3.02 3.495 -1 4 C-0.67 2.68 -0.34 1.36 0 0 Z " fill="#E2DDD6" transform="translate(6,24)"/>
<path d="M0 0 C2 2 2 2 3 5 C5.00016466 6.20882096 5.00016466 6.20882096 7 7 C7 7.33 7 7.66 7 8 C5.02 8 3.04 8 1 8 C0.67 5.36 0.34 2.72 0 0 Z " fill="#C1CEE3" transform="translate(337,52)"/>
<path d="M0 0 C2 2 2 2 3 5 C5.00016466 6.20882096 5.00016466 6.20882096 7 7 C7 7.33 7 7.66 7 8 C5.02 8 3.04 8 1 8 C0.67 5.36 0.34 2.72 0 0 Z " fill="#C2CEE4" transform="translate(113,52)"/>
<path d="M0 0 C0.66 0 1.32 0 2 0 C2.33 1.32 2.66 2.64 3 4 C0.525 5.485 0.525 5.485 -2 7 C-1.125 2.25 -1.125 2.25 0 0 Z " fill="#AEBACE" transform="translate(328,27)"/>
<path d="M0 0 C1.32 0 2.64 0 4 0 C4 0.99 4 1.98 4 3 C0.7 3 -2.6 3 -6 3 C-6 2.67 -6 2.34 -6 2 C-4.02 1.67 -2.04 1.34 0 1 C0 0.67 0 0.34 0 0 Z " fill="#3D3E43" transform="translate(318,59)"/>
<path d="M0 0 C1.32 0 2.64 0 4 0 C4 0.99 4 1.98 4 3 C1.03 3 -1.94 3 -5 3 C-5 2.67 -5 2.34 -5 2 C-3.35 2 -1.7 2 0 2 C0 1.34 0 0.68 0 0 Z " fill="#3C3E40" transform="translate(144,59)"/>
<path d="M0 0 C0.66 0.33 1.32 0.66 2 1 C2 2.32 2 3.64 2 5 C0.35 5 -1.3 5 -3 5 C-2.01 3.35 -1.02 1.7 0 0 Z " fill="#F8F8F9" transform="translate(329,41)"/>
<path d="M0 0 C3 2 3 2 3.51171875 3.9453125 C3.67447917 5.96354167 3.83723958 7.98177083 4 10 C0 4 0 4 0 0 Z " fill="#D4D3D9" transform="translate(108,28)"/>
<path d="M0 0 C1.98 0 3.96 0 6 0 C6 0.99 6 1.98 6 3 C4.35 3 2.7 3 1 3 C0.67 2.01 0.34 1.02 0 0 Z " fill="#EF6B62" transform="translate(63,28)"/>
<path d="M0 0 C3.3 0 6.6 0 10 0 C10 0.99 10 1.98 10 3 C6.7 2.34 3.4 1.68 0 1 C0 0.67 0 0.34 0 0 Z " fill="#4B4C52" transform="translate(163,25)"/>
<path d="M0 0 C2.31 0 4.62 0 7 0 C5.68 0.33 4.36 0.66 3 1 C3 2.32 3 3.64 3 5 C2.34 5 1.68 5 1 5 C0.67 3.35 0.34 1.7 0 0 Z " fill="#D0827E" transform="translate(57,13)"/>
</svg>
